<svg id="_0553_coins" xmlns="http://www.w3.org/2000/svg" xmlns:xlink="http://www.w3.org/1999/xlink" viewBox="0 0 500 500" data-imageid="money-1-14" imageName="Money 1" class="illustrations_image" style="width: 144px;"><defs><style>.cls-1_money-1-14{fill:url(#linear-gradient);}.cls-1_money-1-14,.cls-2_money-1-14,.cls-3_money-1-14,.cls-4_money-1-14,.cls-5_money-1-14,.cls-6_money-1-14,.cls-7_money-1-14,.cls-8_money-1-14,.cls-9_money-1-14,.cls-10_money-1-14,.cls-11_money-1-14,.cls-12_money-1-14,.cls-13_money-1-14,.cls-14_money-1-14,.cls-15_money-1-14,.cls-16_money-1-14,.cls-17_money-1-14,.cls-18_money-1-14,.cls-19_money-1-14,.cls-20_money-1-14,.cls-21_money-1-14,.cls-22_money-1-14,.cls-23_money-1-14,.cls-24_money-1-14,.cls-25_money-1-14,.cls-26_money-1-14{stroke-width:0px;}.cls-2_money-1-14{opacity:.18;}.cls-2_money-1-14,.cls-12_money-1-14{isolation:isolate;}.cls-2_money-1-14,.cls-12_money-1-14,.cls-26_money-1-14{fill:#68e1fd;}.cls-3_money-1-14{fill:url(#linear-gradient-11-money-1-14);}.cls-4_money-1-14{fill:url(#linear-gradient-12-money-1-14);}.cls-5_money-1-14{fill:url(#linear-gradient-13-money-1-14);}.cls-6_money-1-14{fill:url(#linear-gradient-10-money-1-14);}.cls-7_money-1-14{fill:url(#linear-gradient-17-money-1-14);}.cls-8_money-1-14{fill:url(#linear-gradient-16-money-1-14);}.cls-9_money-1-14{fill:url(#linear-gradient-15-money-1-14);}.cls-10_money-1-14{fill:url(#linear-gradient-18-money-1-14);}.cls-11_money-1-14{fill:url(#linear-gradient-14-money-1-14);}.cls-12_money-1-14{opacity:.39;}.cls-13_money-1-14{fill:url(#linear-gradient-4-money-1-14);}.cls-14_money-1-14{fill:url(#linear-gradient-2-money-1-14);}.cls-15_money-1-14{fill:url(#linear-gradient-3-money-1-14);}.cls-16_money-1-14{fill:url(#linear-gradient-8-money-1-14);}.cls-17_money-1-14{fill:url(#linear-gradient-9-money-1-14);}.cls-18_money-1-14{fill:url(#linear-gradient-7-money-1-14);}.cls-19_money-1-14{fill:url(#linear-gradient-5-money-1-14);}.cls-20_money-1-14{fill:url(#linear-gradient-6-money-1-14);}.cls-21_money-1-14{fill:#282328;}.cls-22_money-1-14{fill:#473f47;}.cls-23_money-1-14{fill:#231f20;}.cls-24_money-1-14{fill:#fff;}.cls-25_money-1-14{fill:#ffb4a3;}</style><linearGradient id="linear-gradient-money-1-14" x1="153.92" y1="385.76" x2="302.01" y2="385.76" gradientUnits="userSpaceOnUse"><stop offset="0" stop-color="#fff" stop-opacity="0"/><stop offset="1" stop-color="#fff"/></linearGradient><linearGradient id="linear-gradient-2-money-1-14" x1="165.14" y1="371.99" x2="290.57" y2="371.99" gradientTransform="translate(596.54 138.83) rotate(89.18)" xlink:href="#linear-gradient-money-1-14"/><linearGradient id="linear-gradient-3-money-1-14" x1="161.51" y1="362.4" x2="309.59" y2="362.4" xlink:href="#linear-gradient-money-1-14"/><linearGradient id="linear-gradient-4-money-1-14" x1="172.74" y1="348.57" x2="298.17" y2="348.57" gradientTransform="translate(580.61 108.15) rotate(89.18)" xlink:href="#linear-gradient-money-1-14"/><linearGradient id="linear-gradient-5-money-1-14" x1="161.51" y1="337.54" x2="309.59" y2="337.54" xlink:href="#linear-gradient-money-1-14"/><linearGradient id="linear-gradient-6-money-1-14" x1="172.74" y1="318.51" x2="298.17" y2="318.51" gradientTransform="translate(550.57 78.52) rotate(89.18)" xlink:href="#linear-gradient-money-1-14"/><linearGradient id="linear-gradient-7-money-1-14" x1="161.49" y1="309.55" x2="309.62" y2="309.55" xlink:href="#linear-gradient-money-1-14"/><linearGradient id="linear-gradient-8-money-1-14" x1="163.8" y1="282.55" x2="311.87" y2="282.55" xlink:href="#linear-gradient-money-1-14"/><linearGradient id="linear-gradient-9-money-1-14" x1="175.02" y1="268.72" x2="300.44" y2="268.72" gradientTransform="translate(503.02 27.17) rotate(89.18)" xlink:href="#linear-gradient-money-1-14"/><linearGradient id="linear-gradient-10-money-1-14" x1="162.66" y1="258.9" x2="310.73" y2="258.9" xlink:href="#linear-gradient-money-1-14"/><linearGradient id="linear-gradient-11-money-1-14" x1="173.89" y1="245.07" x2="299.32" y2="245.07" gradientTransform="translate(478.27 4.98) rotate(89.18)" xlink:href="#linear-gradient-money-1-14"/><linearGradient id="linear-gradient-12-money-1-14" x1="-1071.49" y1="4125.45" x2="-943.79" y2="3991.45" gradientTransform="translate(1251.08 4360.14) scale(1 -1)" gradientUnits="userSpaceOnUse"><stop offset="0" stop-color="#231f20"/><stop offset=".13" stop-color="#231f20" stop-opacity=".69"/><stop offset=".25" stop-color="#231f20" stop-opacity=".32"/><stop offset="1" stop-color="#231f20" stop-opacity="0"/></linearGradient><linearGradient id="linear-gradient-13-money-1-14" x1="-1125.29" y1="4054.48" x2="-1013.77" y2="3951.38" xlink:href="#linear-gradient-12-money-1-14"/><linearGradient id="linear-gradient-14-money-1-14" x1="-1041.29" y1="4198.57" x2="-1044.02" y2="4143.57" xlink:href="#linear-gradient-12-money-1-14"/><linearGradient id="linear-gradient-15-money-1-14" x1="-1083.3" y1="4041.31" x2="-1044.31" y2="4021.95" xlink:href="#linear-gradient-12-money-1-14"/><linearGradient id="linear-gradient-16-money-1-14" x1="-1115.16" y1="3990" x2="-1092.31" y2="4041.38" xlink:href="#linear-gradient-12-money-1-14"/><linearGradient id="linear-gradient-17-money-1-14" x1="-1029.24" y1="4231.38" x2="-1004.54" y2="4177.43" xlink:href="#linear-gradient-12-money-1-14"/><linearGradient id="linear-gradient-18-money-1-14" x1="-1094.78" y1="4134.15" x2="-1078.81" y2="4169.86" gradientTransform="translate(1289 4387.76) scale(1 -1)" gradientUnits="userSpaceOnUse"><stop offset="0" stop-color="#000"/><stop offset="1" stop-color="#000" stop-opacity="0"/></linearGradient></defs><g id="background_money-1-14"><path class="cls-2_money-1-14 targetColor" d="M472.17,412.5c-10.95,15.67-27.14,28-45.77,32.16-21.36,4.76-43.39-1.35-64.4-7.35-30.96-8.86-62.82-17.53-94.86-14.55-53.33,4.88-100.6,41.41-154.14,42.51-33.58.48-65.84-13.06-89.02-37.36-6.02-6.41-11.39-13.6-14.57-21.83-3.62-9.47-4.09-19.87-3.49-29.99,1.61-26.93,10.35-51.68,24.65-74.06l.34-.54c14.66-22.9,23.1-49.21,24.5-76.36.5-9.88,0-19.81.75-29.68,1.32-18.81,6.82-37.16,14.24-54.47,10.88-25.31,26.45-49.08,48.11-65.98,14.7-11.48,31.76-19.48,48.66-27.37,8.67-4.06,17.52-8.16,27.06-9.46,6.64-.71,13.34-.56,19.94.47,5.7.72,11.3,1.71,16.82,2.98,32.32,7.42,62.25,22.86,87.02,44.9,26.06,23.09,47.82,48.93,69.44,76.14,29.57,37.18,63.63,71.61,84.82,114.13,4.05,8.12,7.48,16.54,10.27,25.18,12.02,37.3,11.75,78.98-10.37,110.54Z" style="fill: rgb(255, 88, 118);"/><ellipse class="cls-12_money-1-14 targetColor" cx="282.31" cy="397.87" rx="131.36" ry="23.7" style="fill: rgb(255, 88, 118);"/></g><g id="coins_money-1-14"><path class="cls-1_money-1-14" d="M227.97,415.84c-40.65-.58-73.42-14.51-73.2-31.08,0-1.85-1.42-12.28-.58-13.93,6.41-13.94,38.45-15.67,74.63-15.07,35.6.51,65.44,0,72.11,13.74.95,1.97,1.14,15.34,1.1,17.33-.26,16.61-33.4,29.49-74.04,29Z"/><ellipse class="cls-26_money-1-14 targetColor" cx="222.01" cy="366.93" rx="30.04" ry="73.61" transform="translate(-147.11 585.28) rotate(-89.43)" style="fill: rgb(255, 88, 118);"/><ellipse class="cls-14_money-1-14" cx="227.85" cy="371.99" rx="25.59" ry="62.72" transform="translate(-147.36 594.49) rotate(-89.18)"/><path class="cls-26_money-1-14 targetColor" d="M188.29,368.96l10.05.16c.4-2.65,2.06-4.94,4.46-6.14l6.65,1.07c-2.32,1.1-3.95,3.27-4.36,5.81,0,2.85,4.03,4.87,9.7,4.97,4.42.32,8.76-1.3,11.91-4.43,4.5-4.66,10.86-7.02,17.3-6.44,8.29,0,14.51,2.58,15.96,6.35l10.05.16v2.51l-9.63-.14c-.34,2.19-1.65,4.11-3.56,5.24l-6.57-1.14c1.89-1.04,3.16-2.94,3.4-5.08,0-3.08-4.54-4.36-8.54-4.43-4.35-.25-8.57,1.56-11.39,4.88-4.27,4.12-9.46,6.14-18.41,6.14-7.86,0-15.34-2.42-16.85-6.67h-10.34l.16-2.82Z" style="fill: rgb(255, 88, 118);"/><path class="cls-15_money-1-14" d="M235.54,392.47c-40.66-.58-73.43-14.48-73.19-31.09,0-1.84-1.42-12.28-.58-13.93,6.41-13.93,38.45-15.57,74.63-15.07,35.6.53,65.43,0,72.08,13.74.98,1.97,1.14,15.34,1.11,17.33-.21,16.56-33.4,29.58-74.04,29.01Z"/><ellipse class="cls-26_money-1-14 targetColor" cx="235.45" cy="348.57" rx="30.04" ry="73.61" transform="translate(-116.45 579.01) rotate(-89.18)" style="fill: rgb(255, 88, 118);"/><ellipse class="cls-13_money-1-14" cx="235.45" cy="348.57" rx="25.59" ry="62.72" transform="translate(-116.45 579.01) rotate(-89.18)"/><path class="cls-26_money-1-14 targetColor" d="M195.89,345.76h10.04c.4-2.65,2.07-4.94,4.47-6.14l6.67,1.08c-2.34,1.06-3.98,3.23-4.36,5.77,0,2.85,4.02,4.91,9.66,4.97,4.43.36,8.8-1.25,11.93-4.41,4.49-4.68,10.86-7.06,17.32-6.45,8.25,0,14.51,2.61,15.95,6.35l10.04.16v2.52l-9.67-.16c-.3,2.21-1.62,4.15-3.56,5.24l-6.54-1.1c1.89-1.05,3.17-2.95,3.43-5.1,0-3.06-4.5-4.36-8.54-4.41-4.33-.25-8.53,1.51-11.39,4.76-4.27,4.1-9.44,6.14-18.41,6.14-7.88,0-15.34-2.46-16.83-6.67l-10.34-.16.14-2.39Z" style="fill: rgb(255, 88, 118);"/><path class="cls-19_money-1-14" d="M235.54,367.61c-40.66-.58-73.43-14.48-73.19-31.08,0-1.84-1.42-12.28-.58-13.93,6.41-13.94,38.45-15.57,74.63-15.07,35.6.51,65.43,0,72.08,13.74.98,1.97,1.14,15.34,1.11,17.33-.21,16.61-33.4,29.58-74.04,29Z"/><ellipse class="cls-26_money-1-14 targetColor" cx="235.46" cy="323.73" rx="30.04" ry="73.61" transform="translate(-91.61 554.53) rotate(-89.18)" style="fill: rgb(255, 88, 118);"/><ellipse class="cls-20_money-1-14" cx="235.46" cy="318.51" rx="25.59" ry="62.72" transform="translate(-86.39 549.39) rotate(-89.18)"/><path class="cls-26_money-1-14 targetColor" d="M195.89,320.72l10.04.16c.39-2.66,2.06-4.95,4.47-6.14l6.67,1.04c-2.34,1.08-3.97,3.26-4.36,5.81,0,2.85,4.02,4.9,9.66,4.97,4.44.36,8.8-1.27,11.93-4.43,4.49-4.68,10.87-7.05,17.32-6.44,8.25,0,14.51,2.61,15.95,6.35l10.04.16v2.51l-9.67-.14c-.31,2.2-1.63,4.14-3.56,5.24l-6.51-1.05c1.9-1.04,3.18-2.94,3.43-5.08,0-3.08-4.5-4.36-8.54-4.43-4.35-.22-8.56,1.58-11.39,4.88-4.27,4.12-9.46,6.14-18.41,6.14-7.88,0-15.34-2.45-16.85-6.67l-10.34-.14.13-2.73Z" style="fill: rgb(255, 88, 118);"/><path class="cls-18_money-1-14" d="M235.63,339.62c-40.66-.5-73.46-14.36-73.27-30.93,0-1.84-1.42-12.26-.61-13.93,6.38-13.94,38.45-15.67,74.58-15.22,35.6.44,65.51-.14,72.15,13.59.95,1.97,1.17,15.34,1.14,17.33-.21,16.61-33.33,29.57-73.99,29.17Z"/><ellipse class="cls-26_money-1-14 targetColor" cx="235.56" cy="290.71" rx="30.04" ry="73.61" transform="translate(-57.47 523.36) rotate(-89.43)" style="fill: rgb(255, 88, 118);"/><path class="cls-26_money-1-14 targetColor" d="M193.13,294.96l10.05.16c.4-2.65,2.06-4.94,4.46-6.14l6.65,1.08c-2.32,1.09-3.95,3.26-4.36,5.8,0,2.85,4.03,4.87,9.7,4.97,4.42.32,8.76-1.29,11.91-4.41,4.49-4.66,10.86-7.03,17.3-6.45,8.29,0,14.51,2.58,15.96,6.35l10.05.16v2.51l-9.63-.14c-.34,2.19-1.65,4.11-3.56,5.24l-6.57-1.14c1.89-1.04,3.16-2.94,3.4-5.08,0-3.08-4.54-4.36-8.54-4.41-4.35-.26-8.58,1.54-11.39,4.87-4.27,4.12-9.46,6.14-18.41,6.14-7.86,0-15.34-2.42-16.85-6.67h-10.34l.16-2.82Z" style="fill: rgb(255, 88, 118);"/><path class="cls-16_money-1-14" d="M237.82,312.62c-40.66-.58-73.43-14.48-73.17-31.09,0-1.84-1.42-12.26-.58-13.93,6.41-13.93,38.45-15.55,74.61-15.07,35.6.53,65.43,0,72.09,13.76.97,1.95,1.13,15.34,1.1,17.33-.21,16.65-33.38,29.58-74.04,29Z"/><ellipse class="cls-26_money-1-14 targetColor" cx="237.73" cy="268.72" rx="30.04" ry="73.61" transform="translate(-34.37 502.58) rotate(-89.18)" style="fill: rgb(255, 88, 118);"/><ellipse class="cls-17_money-1-14" cx="237.73" cy="268.72" rx="25.59" ry="62.72" transform="translate(-34.37 502.58) rotate(-89.18)"/><path class="cls-26_money-1-14 targetColor" d="M200.74,271.79h10.04c.4-2.65,2.07-4.94,4.47-6.14l6.67,1.08c-2.32,1.05-3.95,3.19-4.36,5.7,0,2.85,4.02,4.91,9.66,4.97,4.43.36,8.8-1.25,11.93-4.41,4.49-4.66,10.86-7.02,17.3-6.41,8.25,0,14.51,2.61,15.95,6.35l9.97.16v2.52l-9.67-.16c-.3,2.21-1.62,4.15-3.56,5.24l-6.54-1.1c1.89-1.05,3.17-2.95,3.43-5.1,0-3.06-4.5-4.36-8.54-4.41-4.33-.25-8.53,1.51-11.39,4.76-4.27,4.12-9.44,6.14-18.41,6.14-7.88,0-15.34-2.46-16.83-6.67l-10.34-.16.23-2.36Z" style="fill: rgb(255, 88, 118);"/><path class="cls-6_money-1-14" d="M236.68,288.96c-40.65-.58-73.42-14.48-73.17-31.09,0-1.84-1.42-12.28-.58-13.93,6.41-13.93,38.45-15.55,74.63-15.07,35.6.53,65.41,0,72.08,13.74.98,1.97,1.14,15.35,1.1,17.35-.16,16.59-33.38,29.58-74.04,29Z"/><ellipse class="cls-26_money-1-14 targetColor" cx="236.61" cy="245.07" rx="30.04" ry="73.61" transform="translate(-11.83 478.15) rotate(-89.18)" style="fill: rgb(255, 88, 118);"/><ellipse class="cls-3_money-1-14" cx="236.61" cy="245.07" rx="25.59" ry="62.72" transform="translate(-11.83 478.15) rotate(-89.18)"/><path class="cls-26_money-1-14 targetColor" d="M197.05,242.08l9.97.14c.41-2.65,2.08-4.94,4.49-6.14l6.65,1.05c-2.33,1.08-3.96,3.26-4.36,5.8,0,2.85,4.03,4.91,9.67,4.97,4.43.36,8.8-1.25,11.93-4.41,4.48-4.68,10.85-7.05,17.3-6.45,8.26,0,14.53,2.61,15.96,6.35l9.97.16v2.52l-9.66-.16c-.3,2.21-1.62,4.15-3.56,5.24l-6.54-1.1c1.89-1.06,3.17-2.95,3.43-5.1,0-3.06-4.51-4.36-8.54-4.41-4.35-.23-8.56,1.57-11.39,4.87-4.27,4.12-9.46,6.14-18.41,6.14-7.89,0-15.34-2.45-16.85-6.65l-10.2-.17.13-2.65Z" style="fill: rgb(255, 88, 118);"/><path class="cls-4_money-1-14" d="M277.9,239.4c2.09,2.46,1.69,6.34-.11,9.03-1.98,2.57-4.56,4.61-7.52,5.95-18.51,9.86-39.46,13.96-59.93,18.6-.77.11-1.51.41-2.14.87-1.15,1.01-1.07,2.85-1.17,4.27-.38,5.03-3.87,9.24-5.3,14.08-.84,3.67-1.1,7.45-.75,11.19l1.24,30.55c.14,1.08-.02,2.18-.47,3.18-.69.98-1.69,1.69-2.85,2.01-4.2,1.44-8.76,1.39-12.93-.13-.75-.22-1.43-.65-1.97-1.22-.49-.77-.76-1.66-.77-2.58-1.88-18.81-4.69-37.54-8.43-56.07-.65-2.24-.73-4.6-.24-6.88,1.15-3.8,5.17-5.82,8.8-7.45l43.18-19.15c2.57-1.01,5-2.34,7.23-3.96,1.52-1.21,2.85-2.68,4.27-3.94,5.38-4.57,12.26-5.53,18.9-3.87,5.98,1.47,16.82.66,20.95,5.53Z"/></g><g id="character_money-1-14"><path class="cls-5_money-1-14" d="M192.53,334.31c0,4.4-7.12,8.54-10.58,9.58-1.47.32-2.9.8-4.27,1.42-1.36.67-2.22,2.07-2.19,3.59.14,1.3,1.2,2.34,1.42,3.6.14,1.1,0,2.22-.41,3.25-1.31,4.27-6.57,6.92-7.86,11.18-7.28-.74-10.57-.13-17.77-1.34l-6.01-3.85c3.02-5.7,6.02-11.31,9.09-16.99,1.16-2.4,2.59-4.66,4.27-6.74,1.97-2.06,4.21-3.85,6.67-5.31,6.36-4.12,12.97-7.82,19.81-11.08-.87.46,7.85,11.54,7.85,12.68Z"/><path class="cls-25_money-1-14" d="M201.18,196.92c-.81.43-1.74.61-2.65.5.16-3.91.98-7.76,2.44-11.39,1.5-3.16,3.93-5.78,5.95-8.64,1.07-1.65,2.23-3.25,3.46-4.79,1.22-1.57,2.88-2.74,4.77-3.35.3-.13.64-.09.9.11.1.14.17.3.19.47l1.72,9.81c.42,1.56.39,3.21-.07,4.76-.87,1.4-1.99,2.63-3.3,3.63-2.52,2.39-5.3,4.49-8.29,6.25-1.65.98-3.36,1.86-5.11,2.63Z"/><path class="cls-11_money-1-14" d="M201.18,196.92c-.81.43-1.74.61-2.65.5.16-3.91.98-7.76,2.44-11.39,1.5-3.16,3.93-5.78,5.95-8.64,1.07-1.65,2.23-3.25,3.46-4.79,1.22-1.57,2.88-2.74,4.77-3.35.3-.13.64-.09.9.11.1.14.17.3.19.47l1.72,9.81c.42,1.56.39,3.21-.07,4.76-.87,1.4-1.99,2.63-3.3,3.63-2.52,2.39-5.3,4.49-8.29,6.25-1.65.98-3.36,1.86-5.11,2.63Z"/><path class="cls-25_money-1-14" d="M188.3,314.33c.74,2.42,1.42,5.27,0,7.31-.69.87-1.61,1.53-2.65,1.91-2.47,1.22-5.42.9-7.58-.81-1.11-1.23-1.9-2.73-2.29-4.34-1.91-5.9-3.29-11.97-4.13-18.12-.12-.57-.09-1.16.09-1.71.31-.6.81-1.07,1.42-1.34,3.23-1.74,8.27-3.13,10.08.73,2.35,4.94,3.42,11.08,5.06,16.38Z"/><path class="cls-26_money-1-14 targetColor" d="M178.56,317.13c-.69-.09-1.38-.03-2.04.2-.45.25-.83.59-1.14,1l-6.99,7.99c-1.35,1.54-2.85,3.66-1.84,5.48.68,1.03,1.78,1.69,3,1.81,3.33.6,6.71-.6,9.83-1.95,2.15-.94,4.27-1.98,6.35-3.09,1.57-.71,2.93-1.79,3.97-3.16,1.6-2.48,2.07-8.4-.78-10.25-1.42-.93-2.68-.26-4.04.38-1.94,1.05-4.12,1.6-6.32,1.6Z" style="fill: rgb(255, 88, 118);"/><path class="cls-25_money-1-14" d="M149.52,341.49c-.06.45-.01.91.14,1.34.24.43.59.79,1.03,1.03,1.32.93,2.88,1.46,4.5,1.54,1.65.07,3.23-.65,4.27-1.94.75-1.2,1.21-2.56,1.32-3.97.59-3.04.88-6.13.87-9.23.04-.44-.1-.87-.38-1.21-.23-.17-.51-.29-.8-.33-2.54-.53-7.53-1.87-8.82,1.27-1.32,3.7-2.04,7.58-2.14,11.51Z"/><path class="cls-26_money-1-14 targetColor" d="M138.87,341.17c-2.16.11-4.29.52-6.34,1.22-2.07.73-3.75,2.27-4.64,4.27-.4.99-.45,2.09-.13,3.1.7,1.49,1.93,2.67,3.45,3.3,7.19,3.89,15.34,5.67,23.5,5.14,2.11.08,4.15-.69,5.7-2.12,1.32-1.52,1.42-3.75,1.51-5.78l.28-9.67c-1.82-.28-3.5.91-5.24,1.51-2.99,1.03-4.17-1.42-6.65-2.04-3.25-.73-8.13.73-11.44,1.05Z" style="fill: rgb(255, 88, 118);"/><path class="cls-9_money-1-14" d="M178.56,317.13c-.69-.09-1.38-.03-2.04.2-.45.25-.83.59-1.14,1l-6.99,7.99c-1.35,1.54-2.85,3.66-1.84,5.48.68,1.03,1.78,1.69,3,1.81,3.33.6,6.71-.6,9.83-1.95,2.15-.94,4.27-1.98,6.35-3.09,1.57-.71,2.93-1.79,3.97-3.16,1.6-2.48,2.07-8.4-.78-10.25-1.42-.93-2.68-.26-4.04.38-1.94,1.05-4.12,1.6-6.32,1.6Z"/><path class="cls-8_money-1-14" d="M138.87,341.17c-2.16.11-4.29.52-6.34,1.22-2.07.73-3.75,2.27-4.64,4.27-.4.99-.45,2.09-.13,3.1.7,1.49,1.93,2.67,3.45,3.3,7.19,3.89,15.34,5.67,23.5,5.14,2.11.08,4.15-.69,5.7-2.12,1.32-1.52,1.42-3.75,1.51-5.78l.28-9.67c-1.82-.28-3.5.91-5.24,1.51-2.99,1.03-4.17-1.42-6.65-2.04-3.25-.73-8.13.73-11.44,1.05Z"/><path class="cls-21_money-1-14" d="M164.71,234.41c-2.07.42-3.97,1.41-5.51,2.85-1.79,2.02-1.95,5.01-1.95,7.73.05,19.54,3.68,38.9,10.71,57.12.34,1.35,1.21,2.52,2.41,3.23,1.07.31,2.22.26,3.26-.16,4.22-1.18,8.38-2.58,12.46-4.19l-5.53-37.13c-.26-1.03-.2-2.12.17-3.12.4-.72.97-1.33,1.67-1.78,6.3-4.66,12.97-8.81,19.94-12.4,5.53-2.85,11.86-6.1,13.39-12.21.62-2.08.21-4.33-1.1-6.07-.87-.88-1.91-1.58-3.05-2.07-3.67-1.84-8.3-4.2-12.53-3.76-3.38.36-4.67,2.34-7.51,3.8-7.93,4.12-18.33,5.64-26.83,8.13Z"/><path class="cls-24_money-1-14" d="M224.52,233.68c-3.43-1.34-6.76-2.92-9.97-4.73-12.21-6.82-2.21-10.18,1.87-18.41,2.85-5.82,1.72-12.82.2-19.14-2.65-11.12-6.2-22.63-3.63-33.77.33-1.8,1.04-3.52,2.08-5.03.74-.93,1.6-1.77,2.55-2.49,2.57-2.24,5.53-4,8.73-5.18,6.15-2.02,12.97-.54,18.76,2.41,22.72,11.56,27.56,40.82,26.66,64.19-.26,6.49-1.22,13.37-5.35,18.33-3.87,4.66-9.97,6.85-15.91,7.61-8.84.92-17.77-.38-25.98-3.77Z"/><path class="cls-25_money-1-14" d="M238.24,160.88c-2,2.52-4.98,4.07-8.19,4.27-.5.06-1-.05-1.42-.31-.45-.46-.7-1.08-.71-1.72-.14-1.28-.33-2.93-.47-4.57-.14-1.64-.4-3.65-.57-5.04-.38-3.72-1.79-7.25-4.07-10.21-.46-.65-1-1.24-1.61-1.75-3.93-3.55,12.08-2.15,14.24-6.96,2.44,3.13,2.22,7.56,3.29,11.39.69,1.87,1.29,3.77,1.78,5.7.6,3.25-.22,6.61-2.26,9.21Z"/><path class="cls-7_money-1-14" d="M227.65,159.28l-.21-.75c-.21-1.82-.4-3.65-.57-5.04-.38-3.72-1.79-7.25-4.07-10.21l-.11-.4s12.69-8.32,14.04,1.42c1.35,9.74-9.07,14.98-9.07,14.98Z"/><path class="cls-25_money-1-14" d="M214.35,137.51c-.26,2.03.12,4.09,1.07,5.9.51.76,1.14,1.42,1.88,1.95,5.04,3.8,12.62,3.03,17.63-.9,5.01-3.93,7.61-10.47,7.88-16.86.13-3.33-.4-6.91-2.63-9.34-2.52-2.44-6.11-3.44-9.53-2.65-4.61,1.06-8.81,3.45-12.08,6.86-3.19,3.59-3.99,10.48-4.22,15.04Z"/><path class="cls-22_money-1-14" d="M168.67,260.3c-2.62,3.37-4.68,7.12-6.12,11.14-7.98,19.59-13.16,40.2-15.38,61.24,6.51.83,13.1.83,19.61,0,.51-14.86,2.77-29.61,6.74-43.95.7-3.07,1.9-6.01,3.55-8.7,2.85-4.27,7.66-6.74,12.23-9.04,10.52-5.24,21.54-9.41,32.88-12.46,4.79-1.35,9.61-2.56,14.24-4.17,4.03-1.21,7.8-3.14,11.14-5.7,3.38-2.65,5.55-6.54,6.01-10.81-.07,1.07-23.78-.1-25.99-.34-7.43-.8-16.21-5.13-23.56-2.08-5.7,2.39-11.01,7.38-16.18,10.82-6.35,4.19-14.1,8.07-19.17,14.06Z"/><polygon class="cls-26_money-1-14 targetColor" points="202.53 258.72 243.92 238.18 196.01 220.92 158.27 237.67 202.53 258.72" style="fill: rgb(255, 88, 118);"/><polygon class="cls-10_money-1-14" points="202.29 255.6 236.85 238.45 196.85 224.04 165.33 238.02 202.29 255.6"/><path class="cls-25_money-1-14" d="M259.98,170.77c.11.71.2,1.42.27,2.14,1.13,10.52.11,20.89-.27,31.33-.24,6.49-1.08,18.86-7.88,22.17-12.7,6.22-37.2,3.83-37.2,3.83-2.84-.46-5.75-.34-8.54.34-1.52.48-2.92,1.3-4.41,1.87-5.35,2.09-11.39,1.04-16.98,0-.98-.12-1.92-.44-2.76-.94-2.19-1.42-2.09-5.03-.46-7.12,1.81-1.96,4.19-3.29,6.81-3.8,7.12-2.08,14.88-2.99,22.03-.87.94.27,1.88.6,2.85.78,1.13.18,2.26.26,3.4.24l8.66.07c9.97.1,19.3.14,20.79-11.68.56-4.37.67-8.78.34-13.17-.6-7.95-2.63-15.81-2.21-23.75.02-2.51.63-4.98,1.78-7.21,1.19-2.23,3.46-3.69,5.98-3.83,2.64.21,4.98,1.8,6.14,4.19.86,1.69,1.42,3.53,1.65,5.41Z"/><polygon class="cls-26_money-1-14 targetColor" points="142.73 199.88 195.47 227.14 202.53 258.72 158.27 237.67 142.73 199.88" style="fill: rgb(255, 88, 118);"/><path class="cls-23_money-1-14" d="M233.31,132.22c.46,2.41.65,4.86.56,7.31,1.68-1.42,1.55-5.23,3.79-5.13,1.34,0,1.97,1.92,1.34,3.13-.75,1.15-1.94,1.94-3.29,2.19-.38,5.14,3.7,8.67,7.12,11.79,3.74,3.63,6.35,8.26,7.52,13.33,1.62,6.38,1.54,13.07,1.42,19.7,1.82-1.42,4.4-.68,6.69-.44,6.76.7,13.52-4.66,14.98-11.39,1.28-6.91-1.91-13.89-7.98-17.45-1.82-1.04-3.93-1.85-5.06-3.63-1.54-2.44-.63-5.61-.54-8.54.06-6.56-4.37-12.31-10.72-13.93,1.25-2.26,2.04-4.74,2.32-7.31,0-3.48-1.44-6.8-3.99-9.17-2.5-2.3-5.4-4.15-8.54-5.44-2.95-1.35-6.25-2.56-9.37-1.64-3.66,1.1-5.94,4.8-7.23,8.42-1.8-.83-3.94-.41-5.28,1.05-1.33,1.49-2.01,3.45-1.89,5.44.03,1.29.3,2.56.78,3.75,1.21-1.42,2.66-2.85,4.12-1.81,1.45,1.04,2.32,3.18,3.66,4.27,1.45,1.21,3.03,2.27,4.7,3.15.58.37,4.8,1.87,4.9,2.35Z"/><path class="cls-25_money-1-14" d="M214.96,161.87c.06-.33.25-.62.54-.8.5-.19.97.36,1.51.44.4.03.79-.12,1.07-.41.28-.28.53-.58.77-.9.41-.46.93-.83,1.32-1.3.77-.96.99-2.25.58-3.42,1.26-.28,2.13-1.43,2.05-2.72-.05-.18-.05-.37,0-.56.13-.26.44-.31.71-.38.88-.25,1.58-.91,1.89-1.77.22-.48.13-1.04-.23-1.42-.22-.15-.47-.24-.73-.27-2.07-.41-4.13-.77-6.21-1.07-.31-.04-.62-.12-.91-.23-.44-.21-.75-.61-1.17-.85-1.21-.54-2.63-.11-3.33,1.01-.59,1.21-1.01,2.49-1.24,3.82-.53,1.42-.47,3.02-1.07,4.44-.44.99-.97,1.95-1.58,2.85-2.66,4.27-13.2,18.39-15.54,21.36-2.49,3.22-4.93,6.71-5.44,10.74-.23,1.41-.07,2.85.44,4.17,1.89,4.47,8.27,5.7,11.88,2.72,1.75-1.6,3.09-3.61,3.89-5.84.68-1.67,1.05-3.42,1.69-5.08.62-1.23,1.3-2.43,2.04-3.59,1.67-3.21,3.1-6.54,4.27-9.97.71-2.07,1.31-4.16,1.82-6.28.24-1.07.47-2.14.67-3.22.11-.31.14-.95.28-1.48Z"/></g></svg>