<svg version="1.1" id="Layer_1" xmlns="http://www.w3.org/2000/svg" xmlns:xlink="http://www.w3.org/1999/xlink" x="0px" y="0px" viewBox="0 0 500 500" style="width: 144px;" xml:space="preserve" data-imageid="motivation-7-37" imageName="Motivation 7" class="illustrations_image">
<style type="text/css">
	.st0_motivation-7-37{fill:#FFFFFF;}
	.st1_motivation-7-37{fill:#231F20;}
	.st2_motivation-7-37{fill:#D1D3D4;}
	.st3_motivation-7-37{fill:#68E1FD;}
	.st4_motivation-7-37{fill:none;}
</style>
<g id="Coins_1_motivation-7-37">
	<circle class="st0_motivation-7-37" cx="376.4" cy="146.8" r="20.9"/>
	<path class="st1_motivation-7-37" d="M376.4,168.4c-11.9,0-21.6-9.6-21.6-21.6c0-11.9,9.6-21.6,21.6-21.6c9.4,0,17.7,6,20.6,14.9l0,0&#10;&#9;&#9;c3.7,11.3-2.5,23.5-13.9,27.2C380.9,168,378.7,168.4,376.4,168.4z M376.4,126.6c-11.2,0-20.2,9-20.2,20.2c0,11.2,9,20.2,20.2,20.2&#10;&#9;&#9;s20.2-9,20.2-20.2c0-2.1-0.3-4.2-1-6.2l0,0C392.9,132.3,385.2,126.6,376.4,126.6z"/>
	<path class="st2_motivation-7-37" d="M376.4,164.2c-9.6,0-17.4-7.8-17.5-17.4s7.8-17.4,17.4-17.5c9.6,0,17.4,7.8,17.5,17.4c0,7.6-4.8,14.3-12,16.6&#10;&#9;&#9;C380.1,163.9,378.2,164.2,376.4,164.2z M376.4,130.8c-8.8,0-16,7.1-16,16s7.1,16,16,16c8.8,0,16-7.1,16-16c0-6-3.4-11.5-8.7-14.3&#10;&#9;&#9;C381.4,131.4,378.9,130.8,376.4,130.8z"/>
	<path class="st3_motivation-7-37 targetColor" d="M379.8,154.7l0.7,2.2l-1.7,0.6l-0.7-2.3c-3.6,0.7-6.6-0.3-8.2-3.5l3.5-1.9c0.7,1.4,2.1,2.3,3.7,2.1l-1.2-3.7&#10;&#9;&#9;c-3.1,0.2-6.6,0.3-7.6-2.8c-0.9-2.8,0.9-5.4,4.5-6.7l-0.6-1.9l1.7-0.6l0.7,2c3.3-0.6,6.1,0.4,7.6,2.8l-3.4,2&#10;&#9;&#9;c-0.7-1-1.9-1.6-3.1-1.5l1,3.1c3.2-0.3,7.2-0.5,8.3,3C385.8,150.5,383.9,153.2,379.8,154.7L379.8,154.7z M374.7,144.9l-0.9-2.9&#10;&#9;&#9;c-1.4,0.5-2,1.3-1.8,2.2C372.2,144.9,373.3,144.9,374.7,144.9L374.7,144.9z M381.1,149c-0.3-1-1.7-1-3.4-0.9l1.1,3.4&#10;&#9;&#9;C380.6,150.9,381.3,149.9,381.1,149L381.1,149z" style="fill: rgb(255, 88, 118);"/>
	<circle class="st0_motivation-7-37" cx="393.4" cy="157.4" r="20.9"/>
	<path class="st1_motivation-7-37" d="M393.4,179c-12,0-21.7-9.7-21.7-21.6c0-12,9.7-21.7,21.6-21.7c12,0,21.7,9.7,21.7,21.6&#10;&#9;&#9;c0,8.8-5.3,16.8-13.5,20.1C399,178.5,396.2,179,393.4,179z M393.4,137.2c-11.1,0-20.2,9-20.2,20.1c0,11.1,9,20.2,20.1,20.2&#10;&#9;&#9;c8.1,0,15.5-4.9,18.6-12.4l0,0c4.3-10.3-0.5-22.1-10.8-26.4C398.8,137.8,396.1,137.2,393.4,137.2L393.4,137.2z"/>
	<path class="st2_motivation-7-37" d="M393.4,174.8c-9.6,0-17.5-7.8-17.5-17.4c0-9.6,7.8-17.5,17.4-17.5c9.6,0,17.5,7.8,17.5,17.4&#10;&#9;&#9;c0,7.1-4.3,13.5-10.9,16.2C397.9,174.4,395.7,174.8,393.4,174.8z M393.4,141.4c-8.8,0-16,7.2-16,16c0,8.8,7.2,16,16,16&#10;&#9;&#9;c6.4,0,12.2-3.9,14.7-9.8l0,0c3.5-8.1-0.3-17.5-8.5-21c0,0,0,0,0,0C397.7,141.8,395.6,141.4,393.4,141.4L393.4,141.4z"/>
	<path class="st2_motivation-7-37" d="M390.8,165.6l-0.8,2.1l-1.7-0.7l0.9-2.2c-3.2-1.8-4.8-4.6-4-8l3.9,0.9c-0.4,1.5,0.1,3.1,1.4,4l1.5-3.6&#10;&#9;&#9;c-2.5-1.9-5.2-4.1-4-7.1c1.1-2.7,4.2-3.5,7.8-2.1l0.8-1.9l1.7,0.7l-0.8,2c2.9,1.7,4.4,4.3,3.9,7l-3.9-0.7c0.2-1.2-0.4-2.4-1.4-3.1&#10;&#9;&#9;l-1.3,3c2.6,1.9,5.8,4.3,4.3,7.8C398.1,166.4,394.9,167.2,390.8,165.6L390.8,165.6z M393.4,154.8l1.2-2.8c-1.4-0.5-2.4-0.3-2.8,0.5&#10;&#9;&#9;C391.5,153.2,392.3,154,393.4,154.8L393.4,154.8z M395.5,162.1c0.4-0.9-0.6-1.9-2-2.9l-1.4,3.3C394,163.2,395.1,163,395.5,162.1&#10;&#9;&#9;L395.5,162.1z"/>
	<circle class="st0_motivation-7-37" cx="368" cy="157.4" r="20.9"/>
	<path class="st1_motivation-7-37" d="M368,179c-11.9,0-21.6-9.6-21.6-21.6c0-11.9,9.6-21.6,21.6-21.6c9.4,0,17.7,6,20.6,14.9l0,0&#10;&#9;&#9;c3.7,11.3-2.5,23.5-13.9,27.2C372.5,178.6,370.3,179,368,179z M368,137.2c-11.2,0-20.3,9-20.3,20.2c0,11.2,9,20.3,20.2,20.3&#10;&#9;&#9;s20.3-9,20.3-20.2c0-7.6-4.2-14.6-11-18.1C374.3,138,371.2,137.2,368,137.2z"/>
	<path class="st2_motivation-7-37" d="M368,174.8c-9.6,0-17.4-7.8-17.5-17.4s7.8-17.4,17.4-17.5c9.6,0,17.4,7.8,17.5,17.4c0,7.6-4.8,14.3-12,16.6&#10;&#9;&#9;C371.6,174.5,369.8,174.8,368,174.8z M368,141.4c-8.8,0-16,7.2-16,16c0,8.8,7.2,16,16,16c8.8,0,16-7.2,16-16c0-1.7-0.3-3.4-0.8-5&#10;&#9;&#9;l0,0C381.1,145.8,374.9,141.3,368,141.4L368,141.4z"/>
	<path class="st2_motivation-7-37" d="M371.4,165.2l0.7,2.2l-1.7,0.6l-0.7-2.3c-3.6,0.7-6.6-0.3-8.2-3.5l3.5-1.9c0.7,1.4,2.1,2.3,3.7,2.1l-1.2-3.7&#10;&#9;&#9;c-3.1,0.2-6.6,0.3-7.6-2.8c-0.9-2.8,0.9-5.4,4.5-6.7l-0.6-1.9l1.7-0.6l0.7,2c3.3-0.6,6.1,0.4,7.6,2.8l-3.4,2&#10;&#9;&#9;c-0.7-1-1.9-1.6-3.1-1.5l1,3.1c3.2-0.3,7.2-0.5,8.3,3C377.4,161,375.5,163.8,371.4,165.2L371.4,165.2z M366.3,155.4l-0.9-2.9&#10;&#9;&#9;c-1.4,0.5-2,1.3-1.8,2.2C363.8,155.4,364.9,155.5,366.3,155.4L366.3,155.4z M372.6,159.6c-0.3-1-1.7-1-3.4-1l1.1,3.4&#10;&#9;&#9;C372.2,161.4,372.9,160.4,372.6,159.6L372.6,159.6z"/>
</g>
<path id="Steps_motivation-7-37" class="st1_motivation-7-37" d="M117,426.1H24.5c-0.4,0-0.7-0.3-0.7-0.7c0-0.4,0.3-0.7,0.7-0.7h91.8v-24.4c0-0.4,0.3-0.7,0.7-0.7h0&#10;&#9;h61.7v-31.8c0-0.4,0.3-0.7,0.7-0.7c0,0,0,0,0,0h69.7v-49.2c0-0.4,0.3-0.7,0.7-0.7c0,0,0,0,0,0h58.2v-35.9c0-0.4,0.3-0.7,0.7-0.7h0&#10;&#9;h138.1c0.4,0,0.7,0.3,0.7,0.7c0,0.4-0.3,0.7-0.7,0.7H309.5v35.9c0,0.4-0.3,0.7-0.7,0.7h0h-58.2v49.2c0,0.4-0.3,0.7-0.7,0.7&#10;&#9;c0,0,0,0,0,0h-69.7v31.8c0,0.4-0.3,0.7-0.7,0.7c0,0,0,0,0,0h-61.7v24.4C117.7,425.8,117.4,426.1,117,426.1L117,426.1L117,426.1z"/>
<g id="Character_motivation-7-37">
	<path class="st0_motivation-7-37" d="M184.9,354l-4.1,14l40-0.7c-2.1-9.3-20.5-13.3-20.5-13.3H184.9z"/>
	<path class="st1_motivation-7-37" d="M180.7,368.7c-0.2,0-0.4-0.1-0.6-0.3c-0.1-0.2-0.2-0.4-0.1-0.6l4.1-14c0.1-0.3,0.4-0.5,0.7-0.5h15.3&#10;&#9;&#9;c0,0,0.1,0,0.1,0c0.8,0.2,18.9,4.2,21.1,13.9c0,0.2,0,0.4-0.1,0.6c-0.1,0.2-0.3,0.3-0.5,0.3L180.7,368.7L180.7,368.7L180.7,368.7z&#10;&#9;&#9; M185.4,354.7l-3.7,12.6l38.1-0.6c-2.8-7.9-18.5-11.7-19.7-11.9L185.4,354.7z"/>
	<path class="st0_motivation-7-37" d="M227.1,236.2c0.4,0,8.6-2.7,8.6-2.7s4.6-8.6,5.9-7.2c0.7,0.8,1.1,1.8,1.1,2.8c0,0,3.2-3.7,4.5-2&#10;&#9;&#9;s4.2,10.6,1.6,12.2s-20.7,8.9-20.7,8.9L227.1,236.2L227.1,236.2z"/>
	<path class="st1_motivation-7-37" d="M228.1,249c-0.1,0-0.3,0-0.4-0.1c-0.2-0.1-0.3-0.3-0.3-0.5l-1-12.1c0-0.2,0-0.4,0.2-0.5&#10;&#9;&#9;c0.1-0.1,0.3-0.2,0.4-0.2c0.5-0.1,5.2-1.6,8.2-2.6c1.3-2.4,4.2-7.2,5.9-7.4c0.4,0,0.8,0.1,1,0.4c0.5,0.5,0.8,1.1,1.1,1.8&#10;&#9;&#9;c0.9-0.9,2-1.5,3.2-1.6c0.5,0,1.1,0.3,1.4,0.7c1.1,1.5,3.3,7.6,2.7,11.1c-0.1,0.9-0.6,1.7-1.3,2.2c-2.7,1.7-20.1,8.7-20.8,9&#10;&#9;&#9;C228.2,249,228.2,249,228.1,249L228.1,249z M227.8,236.7l0.9,10.6c3.6-1.5,17.4-7.1,19.7-8.5c0.4-0.3,0.6-0.8,0.7-1.3&#10;&#9;&#9;c0.6-3-1.5-8.7-2.4-10c-0.1-0.1-0.2-0.2-0.3-0.2c-0.8-0.1-2.3,1.3-3.1,2.2c-0.3,0.3-0.7,0.3-1,0.1c-0.2-0.1-0.3-0.4-0.2-0.6&#10;&#9;&#9;c0-0.8-0.3-1.6-0.9-2.2c-0.8,0.4-3,3.4-4.9,6.9c-0.1,0.2-0.2,0.3-0.4,0.3C232.9,235.1,229.3,236.3,227.8,236.7L227.8,236.7z"/>
	<path class="st0_motivation-7-37" d="M79.4,396.2c0,0-7.4,16.9-7,19.9s18,8.8,18,8.8l20.1,0.5c-1.3-2.4-3.1-4.5-5.3-6.2c-4.6-3.5-8.8-6.2-9.2-7.5&#10;&#9;&#9;c-0.6-1.9-1.5-9.5-1.5-9.5L79.4,396.2L79.4,396.2z"/>
	<path class="st1_motivation-7-37" d="M110.5,426.1L110.5,426.1l-20.1-0.5c-0.1,0-0.1,0-0.2,0c-4.2-1.4-18-6.2-18.4-9.3s6.3-18.5,7-20.2&#10;&#9;&#9;c0.2-0.3,0.5-0.5,0.9-0.4l15.2,5.9c0.2,0.1,0.4,0.3,0.4,0.6c0,0.1,0.8,7.6,1.4,9.4c0.2,0.7,2.9,2.7,5.5,4.6&#10;&#9;&#9;c1.1,0.8,2.2,1.6,3.4,2.5c2.5,1.9,5.3,5.7,5.5,6.6c0.1,0.4-0.1,0.7-0.5,0.8C110.6,426.1,110.6,426.1,110.5,426.1L110.5,426.1z&#10;&#9;&#9; M90.5,424.1l18.8,0.5c-1.2-1.9-2.8-3.5-4.5-5c-1.2-0.9-2.3-1.8-3.4-2.5c-3.8-2.8-5.7-4.2-6-5.3c-0.7-3-1.1-6.1-1.4-9.2l-14.2-5.5&#10;&#9;&#9;c-2.9,6.5-7,16.9-6.7,18.9C73.3,417.5,82.3,421.4,90.5,424.1L90.5,424.1z"/>
	<path class="st3_motivation-7-37 targetColor" d="M175.3,201.7c0,0,22.8,41.8,26.2,40.9s27.6-8.9,27.6-8.9l4.3,14.5c0,0-29.6,24.4-37.5,19.3&#10;&#9;&#9;c-12.5-8-20.6-30.3-20.6-30.3V201.7z" style="fill: rgb(255, 88, 118);"/>
	<path class="st0_motivation-7-37" d="M24.3,331.8l11.5-32.1c0.7-2,3-3.1,5-2.4l53.5,19.1c2,0.7,3.1,3,2.4,5l-11.5,32.1c-0.7,2-3,3.1-5,2.4&#10;&#9;&#9;l-53.5-19.1C24.7,336.1,23.6,333.8,24.3,331.8z"/>
	<path class="st1_motivation-7-37" d="M80.5,356.4c-0.7,0-1.4-0.1-2.1-0.4l0,0L27.9,338c-3.2-1.1-4.9-4.7-3.7-7.9c0,0,0,0,0,0L34.6,301&#10;&#9;&#9;c1.1-3.2,4.7-4.9,7.9-3.7c0,0,0,0,0,0l50.5,18c3.2,1.2,4.9,4.7,3.7,7.9l-10.4,29.1C85.5,354.8,83.1,356.4,80.5,356.4L80.5,356.4z&#10;&#9;&#9; M78.9,354.7c1.2,0.4,2.5,0.4,3.7-0.2c1.1-0.5,2-1.5,2.4-2.7l10.4-29.1c0.9-2.5-0.4-5.2-2.9-6.1l-50.5-18c-2.5-0.9-5.2,0.4-6.1,2.9&#10;&#9;&#9;c0,0,0,0,0,0l-10.4,29.1c-0.4,1.2-0.4,2.5,0.2,3.6c0.5,1.1,1.5,2,2.7,2.5L78.9,354.7z"/>
	<path class="st2_motivation-7-37" d="M87.8,326.9c-0.1,0-0.2,0-0.2,0l-48.1-17.2c-0.4-0.1-0.6-0.5-0.5-0.8c0.1-0.4,0.5-0.6,0.8-0.5&#10;&#9;&#9;c0,0,0.1,0,0.1,0.1L88,325.5c0.4,0.1,0.5,0.6,0.4,0.9C88.3,326.7,88,326.9,87.8,326.9L87.8,326.9z"/>
	<path class="st1_motivation-7-37" d="M78.7,311.6c-0.1,0-0.2,0-0.2,0l-22.5-8c-0.2-0.1-0.3-0.2-0.4-0.4c-0.1-0.2-0.1-0.4,0-0.5l1.5-4.3&#10;&#9;&#9;c0.9-2.5,3.7-3.8,6.2-2.9c0,0,0,0,0,0l14.7,5.2c2.5,0.9,3.8,3.7,2.9,6.2c0,0,0,0,0,0l-1.5,4.3c-0.1,0.2-0.2,0.3-0.4,0.4&#10;&#9;&#9;C78.9,311.6,78.8,311.7,78.7,311.6L78.7,311.6z M57.2,302.5l21.2,7.6l1.3-3.6c0.3-0.9,0.3-1.8-0.1-2.6c-0.4-0.8-1.1-1.5-2-1.8&#10;&#9;&#9;l-14.7-5.2c-0.9-0.3-1.8-0.3-2.6,0.1c-0.8,0.4-1.5,1.1-1.8,2L57.2,302.5z"/>
	<path class="st0_motivation-7-37" d="M82.9,285c0,0-1.6,4.2-2.3,7.2S80,301,80,301c-0.8-0.8-2-0.9-2.9-1.6c0,1.3-0.2,2.5-0.6,3.7&#10;&#9;&#9;c-0.4,1.2-1.4,2.1-2.6,2.5c-0.7,0.1-1.3,0-2-0.1c-2.3-0.5-6.3-1.5-7-4.2c-0.2-1.1-0.1-2.2,0.3-3.2c1.4-4.2,8.2-15.5,9.3-17.3"/>
	<path class="st1_motivation-7-37" d="M73.3,306.3c-0.5,0-1-0.1-1.6-0.2c-2-0.5-6.6-1.5-7.5-4.8c-0.2-1.2-0.1-2.4,0.3-3.6c1.5-4.7,9.3-17.4,9.3-17.5&#10;&#9;&#9;c0.2-0.3,0.6-0.5,0.9-0.3c0.3,0.2,0.5,0.6,0.3,0.9c0,0,0,0.1-0.1,0.1c-2,3.2-8,13.4-9.2,17.2c-0.4,0.9-0.5,1.8-0.3,2.8&#10;&#9;&#9;c0.6,2.2,3.8,3.1,6.5,3.8c0.6,0.2,1.1,0.2,1.7,0.1c1-0.3,1.8-1,2.1-2c0.4-1.1,0.5-2.3,0.5-3.5c0-0.3,0.2-0.5,0.4-0.6&#10;&#9;&#9;c0.2-0.1,0.5-0.1,0.7,0.1c0.4,0.3,0.8,0.5,1.2,0.6l0.5,0.2c0-2.5,0.2-5.1,0.6-7.6c0.8-3.1,2.3-7.1,2.3-7.3c0.1-0.4,0.5-0.6,0.9-0.4&#10;&#9;&#9;c0.4,0.1,0.6,0.5,0.4,0.9c0,0,0,0,0,0.1c0,0-1.6,4.2-2.3,7.2c-0.5,2.8-0.7,5.7-0.5,8.6c0,0.2-0.1,0.4-0.2,0.5&#10;&#9;&#9;c-0.2,0.3-0.6,0.3-0.9,0.1l0,0c0,0-0.1,0-0.1-0.1c-0.4-0.3-0.8-0.6-1.3-0.8l-0.4-0.2c0,0.9-0.2,1.9-0.5,2.8&#10;&#9;&#9;c-0.5,1.4-1.7,2.5-3.2,2.8C73.8,306.2,73.5,306.3,73.3,306.3L73.3,306.3z"/>
	<path class="st3_motivation-7-37 targetColor" d="M133.6,227.7c-1.2,0.7-44.3,52.2-50.1,62.5l-14-6.9c0,0,14.3-31.7,47.5-72.4&#10;&#9;&#9;C131.4,201.7,133.6,227.7,133.6,227.7L133.6,227.7z" style="fill: rgb(255, 88, 118);"/>
	<path class="st1_motivation-7-37" d="M173.4,267.6c0,0,44.9,18.5,45.9,27.7s-15,58.6-15,58.6h-23.4c0,0,9.4-39.7,6.9-41.6S149,301,149,301L97,405.2&#10;&#9;&#9;l-21.7-5.8l37.8-125.9L173.4,267.6L173.4,267.6z"/>
	<path class="st1_motivation-7-37" d="M97,405.9c-0.1,0-0.1,0-0.2,0l-21.7-5.8c-0.4-0.1-0.6-0.5-0.5-0.8c0,0,0,0,0,0l37.8-125.9&#10;&#9;&#9;c0.1-0.3,0.3-0.5,0.6-0.5l60.3-5.9c0.1,0,0.2,0,0.3,0c1.9,0.8,45.2,18.8,46.3,28.3c1.1,9.3-14.4,56.9-15,58.9&#10;&#9;&#9;c-0.1,0.3-0.4,0.5-0.7,0.5h-23.5c-0.2,0-0.4-0.1-0.6-0.3c-0.1-0.2-0.2-0.4-0.1-0.6c4.4-18.8,8.3-39.2,7.1-41&#10;&#9;&#9;c-1.7-1.3-23.4-7.3-37.9-11.1L97.6,405.6C97.5,405.8,97.3,406,97,405.9L97,405.9z M76.1,398.9l20.5,5.5l51.8-103.8&#10;&#9;&#9;c0.2-0.3,0.5-0.4,0.8-0.4c3.7,1,36.5,9.5,39,11.5s-3.5,29-6.4,41.5h22.1c1.6-5.1,15.8-49.4,14.8-57.9c-0.8-7.2-32.8-21.9-45.3-27.1&#10;&#9;&#9;l-59.7,5.8L76.1,398.9L76.1,398.9z"/>
	<path class="st0_motivation-7-37" d="M173.4,267.6l-50.9,9.5l12.7-75.2c0,0,7.7-5.5,13.9-5.5c7.4,0,13.8,5.7,16.3,7.2&#10;&#9;&#9;C169.9,206.2,173.4,267.6,173.4,267.6z"/>
	<path class="st1_motivation-7-37" d="M122.5,277.8c-0.2,0-0.4-0.1-0.5-0.2c-0.2-0.2-0.2-0.4-0.2-0.6l12.7-75.2c0-0.2,0.1-0.3,0.3-0.4&#10;&#9;&#9;c0.3-0.2,7.9-5.6,14.3-5.6h0c6.2,0,11.6,3.8,14.8,6c0.7,0.5,1.4,1,1.8,1.2c4.7,2.7,7.8,54.3,8.4,64.6c0,0.4-0.2,0.7-0.6,0.7&#10;&#9;&#9;L122.5,277.8L122.5,277.8L122.5,277.8z M135.8,202.3l-12.4,73.9l49.3-9.2c-1.4-23.6-4.6-61.1-7.6-62.9c-0.5-0.3-1.2-0.8-1.9-1.3&#10;&#9;&#9;c-3.1-2.1-8.2-5.8-14-5.8l0,0C143.7,197.1,137.1,201.4,135.8,202.3L135.8,202.3z"/>
	<path class="st3_motivation-7-37 targetColor" d="M143.8,196.7c-0.8,0.5,1.5,11.4,1.6,12.4c1.1,9.2,2.7,18.6,3.6,27.8c0.8,8.9-2.7,18.3-4.4,27&#10;&#9;&#9;c-1.9,10-5,19.7-9.1,28.9c-1.5,3.4-3.4,7-6.5,9c-2.5,1.4-5.2,2.1-8.1,2.2c-4.8,0.4-9.6,0.3-14.3-0.3c-1.8-0.1-3.6-0.6-5.2-1.5&#10;&#9;&#9;c-3.2-2-4.4-6.3-3.8-10c1-5.9,4.8-11.5,6.6-17.3c1.7-6.1,3-12.3,3.9-18.6c1.9-12.8,2.5-25.8,4.2-38.6&#10;&#9;&#9;C120.1,201.8,129.8,202.6,143.8,196.7L143.8,196.7z" style="fill: rgb(255, 88, 118);"/>
	<path class="st3_motivation-7-37 targetColor" d="M175.3,201.7c0.3,0.1,5.2,18.8,5.3,20c1.2,14.5-4.7,27.1,2.6,40.8c2.8,5.2,6.4,9.9,9.2,15.1&#10;&#9;&#9;c0.4,0.6,0.6,1.3,0.5,2c-0.3,0.8-0.9,1.4-1.7,1.8c-5.8,3.5-12.7,6.8-19,4.5c-4-1.5-6.9-5.1-8.5-9s-2.1-8.2-2.4-12.5&#10;&#9;&#9;c-1.5-19,0.3-37.7-1.6-56.6c0-0.5-1.4-11.4-1.6-11.5C163.7,198.7,169.4,200.5,175.3,201.7L175.3,201.7z" style="fill: rgb(255, 88, 118);"/>
	<path class="st1_motivation-7-37" d="M155,204.6l-3.9,3.8l3.1,2.2c0,0-3.3,24.6-14.9,28s-16.1,2.3-16.1,2.3l-6.4,8.3c0,0,10,2.8,10.7,3.1&#10;&#9;&#9;c0.7,0.2,21.8-4.7,25.1-17.7c2-7.7,3.3-15.5,3.9-23.4l2.1-2.6L155,204.6z"/>
	<path class="st1_motivation-7-37" d="M141.4,234.7c-0.2,0-0.4-0.1-0.6-0.3l-9.8-13.3c-0.2-0.3-0.2-0.7,0.1-0.9l5.9-6.1l-7.3-1.9&#10;&#9;&#9;c-0.4-0.1-0.6-0.5-0.5-0.9c0-0.1,0.1-0.2,0.2-0.3l9-9.6c0.3-0.3,0.7-0.3,1,0s0.3,0.7,0,1l-8.2,8.8l7.4,1.9c0.4,0.1,0.6,0.5,0.5,0.8&#10;&#9;&#9;c0,0.1-0.1,0.2-0.2,0.3l-6.3,6.5l9.4,12.9c0.2,0.3,0.2,0.8-0.2,1C141.6,234.7,141.5,234.8,141.4,234.7L141.4,234.7z"/>
	<path class="st1_motivation-7-37" d="M114.3,281.3c-0.3,0-0.5-0.2-0.7-0.4c-0.1-0.4,0-0.8,0.4-0.9c5.8-2.4,16.4-7.1,16.5-7.1&#10;&#9;&#9;c0.4-0.1,0.8,0.1,0.9,0.4c0.1,0.3,0,0.7-0.3,0.9c-0.1,0-10.7,4.7-16.5,7.1C114.4,281.3,114.4,281.3,114.3,281.3L114.3,281.3z"/>
	<path class="st1_motivation-7-37" d="M167.1,230.4c-0.1,0-0.2,0-0.3-0.1c-0.4-0.2-0.5-0.6-0.4-0.9c0,0,0,0,0,0l6-13.4l-7.6-4&#10;&#9;&#9;c-0.2-0.1-0.3-0.3-0.4-0.4c0-0.2,0-0.4,0.1-0.6l4.7-7.4l-6.2-1.2c-0.4-0.1-0.6-0.5-0.5-0.9c0.1-0.3,0.4-0.6,0.8-0.5l7.2,1.4&#10;&#9;&#9;c0.2,0,0.4,0.2,0.5,0.4c0.1,0.2,0.1,0.5-0.1,0.6l-4.8,7.6l7.5,3.9c0.3,0.2,0.5,0.6,0.3,0.9l-6.3,14&#10;&#9;&#9;C167.6,230.3,167.3,230.4,167.1,230.4L167.1,230.4z"/>
	<path class="st0_motivation-7-37" d="M145.8,190.9c-6.5,2-13.5,1.3-20.3-3.8c2.1-1.3,3.7-3.1,4.8-5.3c-2.1,1.6-5.2,1.4-7.5,0c-2.2-1.5-3.9-3.6-5-6&#10;&#9;&#9;c5.2-0.7,9.4-4.7,12.6-8.9s5.8-9,9.9-12.3c6.8-5.5,16.3-6.3,24-2.1c1.7,1,4.7,2.8,5.4,4.8c0.6,1.8-0.6,2.9-0.5,4.6&#10;&#9;&#9;c0.1,2.3,1.2,3.4,0.6,5.9c-0.7,2.4-1.8,4.7-3.3,6.7c-1.7,2.3-3.6,4.4-5.6,6.4C156.5,185.5,151.3,189.2,145.8,190.9L145.8,190.9z"/>
	<path class="st1_motivation-7-37" d="M139.1,192.6c-5.1-0.1-10-1.8-14-4.9c-0.2-0.1-0.3-0.4-0.3-0.6c0-0.2,0.1-0.4,0.3-0.6c1.3-0.8,2.4-1.9,3.4-3.1&#10;&#9;&#9;c-2.1,0.5-4.2,0.1-6-1c-2.1-1.2-3.7-3.2-5.3-6.3c-0.1-0.2-0.1-0.4,0-0.6c0.1-0.2,0.3-0.3,0.5-0.4c4.2-0.6,8.2-3.4,12.1-8.7&#10;&#9;&#9;c0.9-1.1,1.7-2.3,2.5-3.5c2.2-3.2,4.5-6.4,7.5-9c7.1-5.6,16.9-6.5,24.8-2.2c2.1,1.2,5,3.1,5.7,5.2c0.3,1,0.2,2.1-0.1,3.1&#10;&#9;&#9;c-0.2,0.6-0.3,1.1-0.3,1.7c0,0.7,0.2,1.5,0.4,2.1c0.4,1.3,0.5,2.6,0.2,3.9c-0.7,2.5-1.9,4.9-3.4,7c-1.3,1.8-2.8,3.5-4.4,5.1&#10;&#9;&#9;l-1.3,1.4c-4.7,5-10,8.6-15.4,10.2l0,0C143.8,192.2,141.5,192.6,139.1,192.6L139.1,192.6z M126.8,187.1c5.4,4,12.4,5.2,18.8,3.1&#10;&#9;&#9;l0,0c5.1-1.6,10.2-5,14.8-9.9c0.4-0.5,0.9-0.9,1.3-1.4c1.5-1.5,3-3.2,4.2-4.9c1.5-2,2.6-4.2,3.2-6.5c0.2-1.1,0.2-2.2-0.2-3.2&#10;&#9;&#9;c-0.2-0.8-0.4-1.6-0.4-2.5c0-0.7,0.1-1.5,0.4-2.2c0.3-0.7,0.4-1.5,0.2-2.2c-0.4-1.3-2.1-2.8-5.1-4.4c-7.5-4-16.6-3.2-23.2,2.1&#10;&#9;&#9;c-2.9,2.4-5.1,5.6-7.2,8.7c-0.8,1.2-1.6,2.4-2.5,3.5c-3.9,5.2-7.8,8.1-12.1,9c1,2,2.5,3.7,4.3,4.9c2,1.3,4.7,1.3,6.7,0&#10;&#9;&#9;c0.3-0.2,0.6-0.2,0.9,0c0.3,0.2,0.3,0.6,0.2,0.9C130,184,128.5,185.7,126.8,187.1L126.8,187.1z"/>
	<path class="st0_motivation-7-37" d="M168.7,175.7c0,0,3.9,7.4,2.9,8.8s-4.2,0.1-4.2,0.1"/>
	<path class="st1_motivation-7-37" d="M169.9,185.8c-1,0-1.9-0.2-2.8-0.6c-0.4-0.1-0.6-0.5-0.5-0.9s0.5-0.6,0.9-0.5c0,0,0.1,0,0.1,0&#10;&#9;&#9;c0.9,0.4,2.8,0.8,3.4,0.1c0.4-0.6-1-4.4-2.9-8c-0.2-0.3-0.1-0.8,0.3-0.9c0.3-0.2,0.8-0.1,0.9,0.3c1.6,2.9,4,8.1,2.8,9.6&#10;&#9;&#9;C171.6,185.5,170.7,185.9,169.9,185.8L169.9,185.8z"/>
	<path class="st0_motivation-7-37" d="M168.8,160.2c2.7,2.7,1.2,13.9,0.9,17.1c-0.5,4.6-1.1,9.2-1.8,13.9c-0.4,2.9-8.1,2.3-9.3,1.2l0.1,11.7&#10;&#9;&#9;c0,0-3.8,0.6-9.6-2.8s-5.8-4.9-5.8-4.9l1.8-13.4c0,0,5,0.5,8.6-5.2s4.3-14.9,4.3-14.9S166.1,157.5,168.8,160.2L168.8,160.2z"/>
	<path class="st1_motivation-7-37" d="M157.8,204.9c-1.5,0-4.8-0.4-9.1-2.9c-5.6-3.3-6.2-5-6.1-5.5l1.8-13.4c0.1-0.4,0.4-0.6,0.8-0.6&#10;&#9;&#9;c0.2,0,4.6,0.4,7.9-4.9c3.4-5.5,4.2-14.5,4.2-14.6c0-0.2,0.1-0.4,0.3-0.5c0.9-0.6,8.8-5.7,11.7-2.8c2.4,2.4,2,9.9,1.2,16.8&#10;&#9;&#9;l-0.1,0.9c-0.5,4.6-1.1,9.3-1.8,13.9c-0.2,1-1,1.9-2,2.2c-2.4,0.7-4.9,0.7-7.3,0.1l0.1,10.7c0,0.3-0.2,0.6-0.6,0.7&#10;&#9;&#9;C158.4,204.9,158.1,204.9,157.8,204.9L157.8,204.9z M143.9,196.4c0.1,0.2,0.9,1.6,5.4,4.3c2.6,1.6,5.5,2.6,8.6,2.7l-0.1-11.1&#10;&#9;&#9;c0-0.3,0.2-0.5,0.4-0.6c0.2-0.1,0.5-0.1,0.7,0.1c0.7,0.5,4.8,1.1,7.1,0.2c0.7-0.3,1.1-0.6,1.1-1.1c0.7-4.6,1.3-9.2,1.8-13.8&#10;&#9;&#9;l0.1-0.9c0.4-3.7,1.5-13.4-0.8-15.7c-1.6-1.6-6.7,0.8-9.7,2.8c-0.2,1.8-1.1,9.7-4.4,14.9c-3,4.8-7,5.5-8.6,5.5L143.9,196.4&#10;&#9;&#9;L143.9,196.4z"/>
	<path class="st0_motivation-7-37" d="M168.1,187.7c-2.7,0.3-5.2-1.4-5.9-4.1"/>
	<path class="st1_motivation-7-37" d="M167.6,188.4c-2.8,0-5.3-1.8-6.1-4.6c-0.1-0.4,0-0.8,0.4-0.9c0.4-0.1,0.8,0,0.9,0.4c0,0,0,0,0,0.1&#10;&#9;&#9;c1.4,4.1,5,3.6,5.1,3.6c0.4-0.1,0.7,0.2,0.8,0.6s-0.2,0.7-0.6,0.8l0,0C168,188.4,167.8,188.4,167.6,188.4L167.6,188.4z"/>
	<path class="st0_motivation-7-37" d="M159.5,177.8c0-1.2-0.4-2.3-1-3.3c-0.4-0.8-0.9-1.6-1.5-2.3c-0.6-0.7-1.5-1.1-2.4-1c-0.8,0.1-1.6,0.6-2,1.3&#10;&#9;&#9;c-0.4,0.7-0.7,1.4-0.8,2.2c-0.5,3.5,0.9,7.1,3.8,9.3l-0.2-0.3"/>
	<path class="st1_motivation-7-37" d="M155.6,184.7c-0.2,0-0.3,0-0.4-0.1c-3-2.4-4.5-6.1-4-9.9c0.1-0.9,0.4-1.8,0.9-2.5c0.6-0.9,1.5-1.4,2.5-1.6&#10;&#9;&#9;c1.1-0.1,2.2,0.4,3,1.2c0.7,0.7,1.2,1.5,1.6,2.4c0.7,1.1,1.1,2.4,1.1,3.7c0,0.4-0.4,0.7-0.8,0.6c-0.4,0-0.7-0.4-0.6-0.8&#10;&#9;&#9;c0-1-0.3-2.1-0.9-2.9c-0.3-0.8-0.8-1.5-1.4-2.1c-0.5-0.5-1.1-0.8-1.9-0.8c-0.6,0.1-1.1,0.5-1.5,1c-0.4,0.6-0.6,1.3-0.7,2&#10;&#9;&#9;c-0.4,3.1,0.7,6.1,3,8.2c0.2,0,0.3,0.1,0.4,0.3l0.2,0.3c0.2,0.3,0.2,0.7-0.1,0.9C156,184.7,155.9,184.8,155.6,184.7L155.6,184.7z"/>
	<path class="st1_motivation-7-37" d="M158.6,192.4c0,0-3.8-1.6-5.4-4.5c0,0-0.4,7.1,5.4,9.7L158.6,192.4z"/>
	<path class="st1_motivation-7-37" d="M158.6,198.4c-0.1,0-0.2,0-0.3-0.1c-6.2-2.8-5.9-10.1-5.9-10.4c0-0.4,0.3-0.7,0.7-0.7c0.2,0,0.5,0.2,0.6,0.4&#10;&#9;&#9;c1.4,2.6,5,4.2,5.1,4.2c0.3,0.1,0.4,0.4,0.4,0.6v5.2c0,0.2-0.1,0.5-0.3,0.6C158.8,198.3,158.7,198.4,158.6,198.4L158.6,198.4z&#10;&#9;&#9; M154,190.2c0.3,2.6,1.7,4.9,3.9,6.3v-3.6C156.5,192.2,155.1,191.3,154,190.2z"/>
	
		<ellipse transform="matrix(0.2602 -0.9656 0.9656 0.2602 -43.1795 288.0467)" class="st1_motivation-7-37" cx="166.4" cy="172.2" rx="1.7" ry="0.6"/>
	<line class="st4_motivation-7-37" x1="167.9" y1="171" x2="164.8" y2="169.2"/>
	<path class="st1_motivation-7-37" d="M167.9,171.7c-0.1,0-0.2,0-0.4-0.1l-3.1-1.8c-0.3-0.2-0.5-0.6-0.3-0.9c0,0,0,0,0-0.1c0.2-0.3,0.6-0.5,0.9-0.3&#10;&#9;&#9;c0,0,0,0,0.1,0l3.1,1.8c0.3,0.2,0.5,0.6,0.3,0.9c0,0,0,0,0,0.1C168.4,171.6,168.2,171.7,167.9,171.7z"/>
	<line class="st4_motivation-7-37" x1="101.6" y1="263.4" x2="124.6" y2="237.3"/>
	<path class="st1_motivation-7-37" d="M101.5,264.1c-0.2,0-0.3-0.1-0.5-0.2c-0.3-0.3-0.3-0.7-0.1-1c0,0,0,0,0,0l23.1-26.1c0.3-0.3,0.7-0.3,1-0.1&#10;&#9;&#9;c0.3,0.3,0.3,0.7,0.1,1l0,0l-23.1,26.1C101.9,264,101.7,264.1,101.5,264.1L101.5,264.1z"/>
	<path class="st1_motivation-7-37" d="M178,249c-0.1,0-0.1,0-0.2,0c-0.4-0.1-0.6-0.5-0.5-0.8c0,0,0,0,0,0c0.1-0.2,5-22.1,1.7-36&#10;&#9;&#9;c-0.1-0.4,0.2-0.7,0.6-0.8c0.3-0.1,0.7,0.1,0.8,0.5c3.4,14.1-1.5,35.7-1.7,36.6C178.6,248.8,178.3,249,178,249L178,249z"/>
	<path class="st1_motivation-7-37" d="M238.2,240.1c-0.4,0-0.7-0.3-0.7-0.7c0-0.3,0.1-0.5,0.4-0.6c1-0.6,1.6-1.7,1.6-2.9c-0.2-0.8-0.2-1.6,0.1-2.4&#10;&#9;&#9;c0.1-0.3,0.4-0.5,0.7-0.5c0.3,0,0.6,0.3,0.6,0.6c0.1,0.7,0.1,1.3,0,2l0.1,0.1c0.4,0.5,1.1,0.7,1.7,0.7c0.3,0,0.5-0.1,0.7-0.3&#10;&#9;&#9;c0.7-1.1-0.4-4.6-1.3-6.8c-0.2-0.3-0.1-0.8,0.3-1c0.3-0.2,0.8-0.1,1,0.3c0,0,0,0.1,0.1,0.1c0.4,1,2.6,6.1,1.2,8.2&#10;&#9;&#9;c-0.4,0.6-1.1,1-1.9,0.9c-0.7,0-1.5-0.2-2.1-0.6c-0.3,1.1-1,2.1-2.1,2.6C238.4,240.1,238.3,240.1,238.2,240.1L238.2,240.1z"/>
</g>
<g id="Trophy_motivation-7-37">
	<path class="st0_motivation-7-37" d="M351.9,220.3c-35-11.9-32-48.2-32-48.5l0.3-3.1h21.4v6.9h-14.9c0.1,8.2,2.9,29.9,27.4,38.3L351.9,220.3&#10;&#9;&#9;L351.9,220.3z"/>
	<path class="st1_motivation-7-37" d="M351.9,221c-0.1,0-0.2,0-0.2,0c-35.6-12.1-32.5-48.9-32.4-49.3l0.3-3.1c0-0.4,0.3-0.6,0.7-0.6h21.4&#10;&#9;&#9;c0.4,0,0.7,0.3,0.7,0.7c0,0,0,0,0,0v6.9c0,0.4-0.3,0.7-0.7,0.7l0,0h-14.2c0.3,9,3.7,29,26.9,36.9c0.2,0.1,0.3,0.2,0.4,0.4&#10;&#9;&#9;c0.1,0.2,0.1,0.4,0,0.5l-2.2,6.5C352.5,220.8,352.2,221,351.9,221L351.9,221z M320.9,169.4l-0.2,2.5c0,0.4-3,35.6,30.8,47.6&#10;&#9;&#9;l1.8-5.2c-24.1-8.6-27.1-29.9-27.2-38.7c0-0.2,0.1-0.4,0.2-0.5c0.1-0.1,0.3-0.2,0.5-0.2H341v-5.5L320.9,169.4L320.9,169.4z"/>
	<path class="st0_motivation-7-37" d="M400.9,220.3l-2.2-6.5c24.5-8.3,27.3-30.1,27.4-38.3h-14.9v-6.9h21.4l0.3,3.1&#10;&#9;&#9;C432.8,172.1,435.9,208.4,400.9,220.3L400.9,220.3z"/>
	<path class="st1_motivation-7-37" d="M400.9,221c-0.1,0-0.2,0-0.3-0.1c-0.2-0.1-0.3-0.2-0.4-0.4L398,214c-0.1-0.4,0.1-0.8,0.4-0.9c0,0,0,0,0,0&#10;&#9;&#9;c23.2-7.9,26.6-27.9,26.9-36.9h-14.2c-0.4,0-0.7-0.3-0.7-0.7c0,0,0,0,0,0v-6.9c0-0.4,0.3-0.7,0.7-0.7l0,0h21.4&#10;&#9;&#9;c0.4,0,0.7,0.3,0.7,0.6l0.3,3.1c0,0.4,3.1,37.2-32.4,49.3C401,221,401,221,400.9,221L400.9,221z M399.6,214.2l1.8,5.2&#10;&#9;&#9;c33.7-11.9,30.9-47.2,30.8-47.6l-0.2-2.5h-20v5.5h14.2c0.2,0,0.4,0.1,0.5,0.2c0.1,0.1,0.2,0.3,0.2,0.5&#10;&#9;&#9;C426.7,184.4,423.7,205.7,399.6,214.2L399.6,214.2z"/>
	<path class="st0_motivation-7-37" d="M412.7,162.2l-72.6-0.6c0,0-0.6,31.1,7.3,50.9c6.6,16.4,14.6,22.9,21.4,25.5c1,2.6,1.5,5.3,1.4,8.1&#10;&#9;&#9;c-0.3,6.6-3.9,13.7-3.9,13.7h20.1c0,0-4.2-6.9-4-13.5c0.1-2.8,0.5-5.5,1.2-8.2c7.7-3.7,17.3-13.1,22.4-26.6&#10;&#9;&#9;C412.9,193.1,412.7,162.2,412.7,162.2L412.7,162.2z"/>
	<path class="st1_motivation-7-37" d="M386.5,260.5h-20.1c-0.2,0-0.5-0.1-0.6-0.3c-0.1-0.2-0.1-0.5,0-0.7c0-0.1,3.5-7,3.8-13.4&#10;&#9;&#9;c0.1-2.6-0.3-5.1-1.2-7.5c-8.8-3.5-16-12.2-21.5-25.8c-7.9-19.7-7.4-50.9-7.4-51.2c0-0.4,0.3-0.7,0.7-0.7l0,0l72.6,0.6&#10;&#9;&#9;c0.4,0,0.7,0.3,0.7,0.7c0,0,0,0,0,0c0,0.3,0.1,31.3-6.7,49.4c-5.4,14.3-15.4,23.4-22.4,26.9c-0.7,2.5-1,5.1-1.1,7.8&#10;&#9;&#9;c-0.1,6.3,3.9,13.1,3.9,13.1c0.1,0.2,0.1,0.5,0,0.7C387,260.4,386.8,260.5,386.5,260.5L386.5,260.5z M367.5,259.1h17.8&#10;&#9;&#9;c-1.2-2.2-3.7-7.6-3.5-12.9c0.1-2.8,0.5-5.6,1.3-8.4c0-0.2,0.2-0.4,0.4-0.4c6.8-3.3,16.7-12.1,22-26.2c6.2-16.4,6.6-43.6,6.6-48.2&#10;&#9;&#9;l-71.2-0.6c0,4.7,0.1,32.2,7.3,49.9c5.4,13.4,12.4,21.8,21,25.1c0.2,0.1,0.3,0.2,0.4,0.4c1.1,2.7,1.6,5.5,1.5,8.4&#10;&#9;&#9;C370.5,250.6,369.4,255,367.5,259.1L367.5,259.1z"/>
	<path class="st0_motivation-7-37" d="M351.2,259.1h50.5c1.3,0,2.4,1.1,2.4,2.4v13.1h-55.2v-13.1C348.8,260.2,349.9,259.1,351.2,259.1z"/>
	<path class="st1_motivation-7-37" d="M404,275.3h-55.2c-0.4,0-0.7-0.3-0.7-0.7v0v-12.1c0-2.2,1.8-4,4-4h48.6c2.2,0,4,1.8,4,4v12.1&#10;&#9;&#9;C404.7,275,404.4,275.3,404,275.3L404,275.3L404,275.3z M349.5,273.9h53.9v-11.4c0-1.5-1.2-2.6-2.6-2.6l0,0h-48.6&#10;&#9;&#9;c-1.5,0-2.6,1.2-2.6,2.6l0,0L349.5,273.9z"/>
	<path class="st0_motivation-7-37" d="M342.5,273.7h67.8c1.1,0,1.9,0.9,1.9,1.9v3.6c0,1.1-0.9,1.9-1.9,1.9h-67.8c-1.1,0-1.9-0.9-1.9-1.9v-3.6&#10;&#9;&#9;C340.6,274.6,341.4,273.7,342.5,273.7z"/>
	<path class="st1_motivation-7-37" d="M409.5,281.9h-66.3c-1.9,0-3.4-1.5-3.4-3.4v-2.1c0-1.9,1.5-3.4,3.4-3.4h66.3c1.9,0,3.4,1.5,3.4,3.4v2.1&#10;&#9;&#9;C412.9,280.4,411.4,281.9,409.5,281.9z M343.3,274.4c-1.1,0-2,0.9-2,2v2.1c0,1.1,0.9,2,2,2h66.3c1.1,0,2-0.9,2-2v-2.1&#10;&#9;&#9;c0-1.1-0.9-2-2-2H343.3z"/>
	<polygon class="st3_motivation-7-37 targetColor" points="376.4,173.3 383.3,187.3 398.7,189.5 387.5,200.3 390.2,215.7 376.4,208.4 362.6,215.7 365.3,200.3 &#10;&#9;&#9;354.1,189.5 369.5,187.3 &#9;" style="fill: rgb(255, 88, 118);"/>
</g>
<g id="Coins_2_motivation-7-37">
	<path class="st0_motivation-7-37" d="M398.9,272.4h30.1c0.5,0,0.9,0.4,0.9,0.9v5.9c0,0.5-0.4,0.9-0.9,0.9h-30.1c-0.5,0-0.9-0.4-0.9-0.9v-5.9&#10;&#9;&#9;C398,272.8,398.4,272.4,398.9,272.4z"/>
	<path class="st1_motivation-7-37" d="M428.7,280.9h-29.4c-1.1,0-2-0.9-2-2v-5.2c0-1.1,0.9-2,2-2h29.4c1.1,0,2,0.9,2,2v5.2&#10;&#9;&#9;C430.7,280,429.8,280.9,428.7,280.9z M399.3,273.1c-0.3,0-0.6,0.3-0.6,0.6l0,0v5.2c0,0.3,0.3,0.6,0.6,0.6l0,0h29.4&#10;&#9;&#9;c0.3,0,0.6-0.3,0.6-0.6l0,0v-5.2c0-0.3-0.3-0.6-0.6-0.6l0,0H399.3z"/>
	<path class="st2_motivation-7-37" d="M401.2,279.5c-0.4,0-0.7-0.3-0.7-0.7v0v-5c0-0.4,0.3-0.7,0.7-0.7c0.4,0,0.7,0.3,0.7,0.7v5&#10;&#9;&#9;C401.9,279.2,401.6,279.5,401.2,279.5z"/>
	<path class="st2_motivation-7-37" d="M404.9,279.5c-0.4,0-0.7-0.3-0.7-0.7v0v-5c0-0.4,0.3-0.7,0.7-0.7c0.4,0,0.7,0.3,0.7,0.7v5&#10;&#9;&#9;C405.5,279.2,405.2,279.5,404.9,279.5z"/>
	<path class="st2_motivation-7-37" d="M408.5,279.5c-0.4,0-0.7-0.3-0.7-0.7v0v-5c0-0.4,0.3-0.7,0.7-0.7c0.4,0,0.7,0.3,0.7,0.7v5&#10;&#9;&#9;C409.2,279.2,408.9,279.5,408.5,279.5z"/>
	<path class="st2_motivation-7-37" d="M412.2,279.5c-0.4,0-0.7-0.3-0.7-0.7v0v-5c0-0.4,0.3-0.7,0.7-0.7c0.4,0,0.7,0.3,0.7,0.7v5&#10;&#9;&#9;C412.9,279.2,412.5,279.5,412.2,279.5z"/>
	<path class="st2_motivation-7-37" d="M415.8,279.5c-0.4,0-0.7-0.3-0.7-0.7v0v-5c0-0.4,0.3-0.7,0.7-0.7c0.4,0,0.7,0.3,0.7,0.7v5&#10;&#9;&#9;C416.5,279.2,416.2,279.5,415.8,279.5z"/>
	<path class="st2_motivation-7-37" d="M419.5,279.5c-0.4,0-0.7-0.3-0.7-0.7v0v-5c0-0.4,0.3-0.7,0.7-0.7c0.4,0,0.7,0.3,0.7,0.7v5&#10;&#9;&#9;C420.2,279.2,419.9,279.5,419.5,279.5z"/>
	<path class="st2_motivation-7-37" d="M423.1,279.5c-0.4,0-0.7-0.3-0.7-0.7v0v-5c0-0.4,0.3-0.7,0.7-0.7c0.4,0,0.7,0.3,0.7,0.7v5&#10;&#9;&#9;C423.8,279.2,423.5,279.5,423.1,279.5z"/>
	<path class="st2_motivation-7-37" d="M426.8,279.5c-0.4,0-0.7-0.3-0.7-0.7v0v-5c0-0.4,0.3-0.7,0.7-0.7s0.7,0.3,0.7,0.7c0,0,0,0,0,0v5&#10;&#9;&#9;C427.5,279.2,427.2,279.5,426.8,279.5z"/>
	<path class="st0_motivation-7-37" d="M393,264.6h30.1c0.5,0,0.9,0.4,0.9,0.9v5.9c0,0.5-0.4,0.9-0.9,0.9H393c-0.5,0-0.9-0.4-0.9-0.9v-5.9&#10;&#9;&#9;C392.1,265,392.5,264.6,393,264.6z"/>
	<path class="st1_motivation-7-37" d="M422.7,273.1h-29.4c-1.1,0-2-0.9-2-2v-5.2c0-1.1,0.9-2,2-2h29.4c1.1,0,2,0.9,2,2v5.2&#10;&#9;&#9;C424.7,272.2,423.8,273.1,422.7,273.1z M393.4,265.3c-0.3,0-0.6,0.3-0.6,0.6l0,0v5.2c0,0.3,0.3,0.6,0.6,0.6l0,0h29.4&#10;&#9;&#9;c0.3,0,0.6-0.3,0.6-0.6l0,0v-5.2c0-0.3-0.3-0.6-0.6-0.6l0,0H393.4z"/>
	<path class="st2_motivation-7-37" d="M395.3,271.7c-0.4,0-0.7-0.3-0.7-0.7v0v-5c0-0.4,0.3-0.7,0.7-0.7c0.4,0,0.7,0.3,0.7,0.7v5&#10;&#9;&#9;C396,271.4,395.6,271.7,395.3,271.7z"/>
	<path class="st2_motivation-7-37" d="M398.9,271.7c-0.4,0-0.7-0.3-0.7-0.7v0v-5c0-0.4,0.3-0.7,0.7-0.7c0.4,0,0.7,0.3,0.7,0.7v5&#10;&#9;&#9;C399.6,271.4,399.3,271.7,398.9,271.7z"/>
	<path class="st2_motivation-7-37" d="M402.6,271.7c-0.4,0-0.7-0.3-0.7-0.7v0v-5c0-0.4,0.3-0.7,0.7-0.7s0.7,0.3,0.7,0.7c0,0,0,0,0,0v5&#10;&#9;&#9;C403.3,271.4,403,271.7,402.6,271.7z"/>
	<path class="st2_motivation-7-37" d="M406.2,271.7c-0.4,0-0.7-0.3-0.7-0.7v0v-5c0-0.4,0.3-0.7,0.7-0.7c0.4,0,0.7,0.3,0.7,0.7v5&#10;&#9;&#9;C406.9,271.4,406.6,271.7,406.2,271.7z"/>
	<path class="st2_motivation-7-37" d="M409.9,271.7c-0.4,0-0.7-0.3-0.7-0.7v0v-5c0-0.4,0.3-0.7,0.7-0.7c0.4,0,0.7,0.3,0.7,0.7v5&#10;&#9;&#9;C410.6,271.4,410.3,271.7,409.9,271.7z"/>
	<path class="st2_motivation-7-37" d="M413.5,271.7c-0.4,0-0.7-0.3-0.7-0.7v0v-5c0-0.4,0.3-0.7,0.7-0.7s0.7,0.3,0.7,0.7c0,0,0,0,0,0v5&#10;&#9;&#9;C414.2,271.4,413.9,271.7,413.5,271.7z"/>
	<path class="st2_motivation-7-37" d="M417.2,271.7c-0.4,0-0.7-0.3-0.7-0.7v0v-5c0-0.4,0.3-0.7,0.7-0.7s0.7,0.3,0.7,0.7c0,0,0,0,0,0v5&#10;&#9;&#9;C417.9,271.4,417.6,271.7,417.2,271.7z"/>
	<path class="st2_motivation-7-37" d="M420.8,271.7c-0.4,0-0.7-0.3-0.7-0.7v0v-5c0-0.4,0.3-0.7,0.7-0.7s0.7,0.3,0.7,0.7c0,0,0,0,0,0v5&#10;&#9;&#9;C421.5,271.4,421.2,271.7,420.8,271.7z"/>
	<path class="st0_motivation-7-37" d="M394.4,256.8h30.1c0.5,0,0.9,0.4,0.9,0.9v5.9c0,0.5-0.4,0.9-0.9,0.9h-30.1c-0.5,0-0.9-0.4-0.9-0.9v-5.9&#10;&#9;&#9;C393.4,257.2,393.8,256.8,394.4,256.8z"/>
	<path class="st1_motivation-7-37" d="M424.1,265.3h-29.4c-1.1,0-2-0.9-2-2v-5.2c0-1.1,0.9-2,2-2h29.4c1.1,0,2,0.9,2,2v5.2&#10;&#9;&#9;C426.1,264.4,425.2,265.3,424.1,265.3L424.1,265.3z M394.7,257.5c-0.3,0-0.6,0.3-0.6,0.6l0,0v5.2c0,0.3,0.3,0.6,0.6,0.6l0,0h29.4&#10;&#9;&#9;c0.3,0,0.6-0.3,0.6-0.6l0,0v-5.2c0-0.3-0.3-0.6-0.6-0.6l0,0H394.7z"/>
	<path class="st2_motivation-7-37" d="M396.6,263.9c-0.4,0-0.7-0.3-0.7-0.7v0v-5c0-0.4,0.3-0.7,0.7-0.7c0.4,0,0.7,0.3,0.7,0.7v5&#10;&#9;&#9;C397.3,263.6,397,263.9,396.6,263.9z"/>
	<path class="st2_motivation-7-37" d="M400.3,263.9c-0.4,0-0.7-0.3-0.7-0.7v0v-5c0-0.4,0.3-0.7,0.7-0.7s0.7,0.3,0.7,0.7c0,0,0,0,0,0v5&#10;&#9;&#9;C401,263.6,400.7,263.9,400.3,263.9z"/>
	<path class="st2_motivation-7-37" d="M403.9,263.9c-0.4,0-0.7-0.3-0.7-0.7v0v-5c0-0.4,0.3-0.7,0.7-0.7s0.7,0.3,0.7,0.7c0,0,0,0,0,0v5&#10;&#9;&#9;C404.6,263.6,404.3,263.9,403.9,263.9z"/>
	<path class="st2_motivation-7-37" d="M407.6,263.9c-0.4,0-0.7-0.3-0.7-0.7v0v-5c0-0.4,0.3-0.7,0.7-0.7s0.7,0.3,0.7,0.7c0,0,0,0,0,0v5&#10;&#9;&#9;C408.3,263.6,408,263.9,407.6,263.9z"/>
	<path class="st2_motivation-7-37" d="M411.2,263.9c-0.4,0-0.7-0.3-0.7-0.7v0v-5c0-0.4,0.3-0.7,0.7-0.7c0.4,0,0.7,0.3,0.7,0.7v5&#10;&#9;&#9;C411.9,263.6,411.6,263.9,411.2,263.9z"/>
	<path class="st2_motivation-7-37" d="M414.9,263.9c-0.4,0-0.7-0.3-0.7-0.7v0v-5c0-0.4,0.3-0.7,0.7-0.7s0.7,0.3,0.7,0.7c0,0,0,0,0,0v5&#10;&#9;&#9;C415.6,263.6,415.3,263.9,414.9,263.9z"/>
	<path class="st2_motivation-7-37" d="M418.6,263.9c-0.4,0-0.7-0.3-0.7-0.7v0v-5c0-0.4,0.3-0.7,0.7-0.7s0.7,0.3,0.7,0.7c0,0,0,0,0,0v5&#10;&#9;&#9;C419.3,263.6,418.9,263.9,418.6,263.9z"/>
	<path class="st2_motivation-7-37" d="M422.2,263.9c-0.4,0-0.7-0.3-0.7-0.7v0v-5c0-0.4,0.3-0.7,0.7-0.7s0.7,0.3,0.7,0.7c0,0,0,0,0,0v5&#10;&#9;&#9;C422.9,263.6,422.6,263.9,422.2,263.9z"/>
	<path class="st0_motivation-7-37" d="M389.8,249h30.1c0.5,0,0.9,0.4,0.9,0.9v5.9c0,0.5-0.4,0.9-0.9,0.9h-30.1c-0.5,0-0.9-0.4-0.9-0.9V250&#10;&#9;&#9;C388.9,249.4,389.3,249,389.8,249z"/>
	<path class="st1_motivation-7-37" d="M419.5,257.5h-29.4c-1.1,0-2-0.9-2-2v-5.2c0-1.1,0.9-2,2-2h29.4c1.1,0,2,0.9,2,2v5.2&#10;&#9;&#9;C421.5,256.6,420.6,257.5,419.5,257.5z M390.2,249.7c-0.3,0-0.6,0.3-0.6,0.6v0v5.2c0,0.3,0.3,0.6,0.6,0.6l0,0h29.4&#10;&#9;&#9;c0.3,0,0.6-0.3,0.6-0.6v0v-5.2c0-0.3-0.3-0.6-0.6-0.6l0,0H390.2z"/>
	<path class="st2_motivation-7-37" d="M392.1,256.1c-0.4,0-0.7-0.3-0.7-0.7c0,0,0,0,0,0v-4.9c0-0.4,0.3-0.7,0.7-0.7c0.4,0,0.7,0.3,0.7,0.7&#10;&#9;&#9;c0,0,0,0,0,0v4.9C392.8,255.8,392.4,256.1,392.1,256.1z"/>
	<path class="st2_motivation-7-37" d="M395.7,256.1c-0.4,0-0.7-0.3-0.7-0.7c0,0,0,0,0,0v-4.9c0-0.4,0.3-0.7,0.7-0.7c0.4,0,0.7,0.3,0.7,0.7v4.9&#10;&#9;&#9;C396.4,255.8,396.1,256.1,395.7,256.1z"/>
	<path class="st2_motivation-7-37" d="M399.4,256.1c-0.4,0-0.7-0.3-0.7-0.7c0,0,0,0,0,0v-4.9c0-0.4,0.3-0.7,0.7-0.7c0.4,0,0.7,0.3,0.7,0.7&#10;&#9;&#9;c0,0,0,0,0,0v4.9C400.1,255.8,399.8,256.1,399.4,256.1z"/>
	<path class="st2_motivation-7-37" d="M403,256.1c-0.4,0-0.7-0.3-0.7-0.7c0,0,0,0,0,0v-4.9c0-0.4,0.3-0.7,0.7-0.7c0.4,0,0.7,0.3,0.7,0.7v4.9&#10;&#9;&#9;C403.7,255.8,403.4,256.1,403,256.1z"/>
	<path class="st2_motivation-7-37" d="M406.7,256.1c-0.4,0-0.7-0.3-0.7-0.7c0,0,0,0,0,0v-4.9c0-0.4,0.3-0.7,0.7-0.7c0.4,0,0.7,0.3,0.7,0.7&#10;&#9;&#9;c0,0,0,0,0,0v4.9C407.4,255.8,407.1,256.1,406.7,256.1z"/>
	<path class="st2_motivation-7-37" d="M410.3,256.1c-0.4,0-0.7-0.3-0.7-0.7c0,0,0,0,0,0v-4.9c0-0.4,0.3-0.7,0.7-0.7c0.4,0,0.7,0.3,0.7,0.7&#10;&#9;&#9;c0,0,0,0,0,0v4.9C411,255.8,410.7,256.1,410.3,256.1z"/>
	<path class="st2_motivation-7-37" d="M414,256.1c-0.4,0-0.7-0.3-0.7-0.7c0,0,0,0,0,0v-4.9c0-0.4,0.3-0.7,0.7-0.7c0.4,0,0.7,0.3,0.7,0.7c0,0,0,0,0,0&#10;&#9;&#9;v4.9C414.7,255.8,414.4,256.1,414,256.1z"/>
	<path class="st2_motivation-7-37" d="M417.6,256.1c-0.4,0-0.7-0.3-0.7-0.7c0,0,0,0,0,0v-4.9c0-0.4,0.3-0.7,0.7-0.7c0.4,0,0.7,0.3,0.7,0.7&#10;&#9;&#9;c0,0,0,0,0,0v4.9C418.3,255.8,418,256.1,417.6,256.1z"/>
	<path class="st0_motivation-7-37" d="M394.4,241.2h30.1c0.5,0,0.9,0.4,0.9,0.9v5.9c0,0.5-0.4,0.9-0.9,0.9h-30.1c-0.5,0-0.9-0.4-0.9-0.9v-5.9&#10;&#9;&#9;C393.4,241.7,393.8,241.2,394.4,241.2z"/>
	<path class="st1_motivation-7-37" d="M424.1,249.7h-29.4c-1.1,0-2-0.9-2-2v-5.2c0-1.1,0.9-2,2-2h29.4c1.1,0,2,0.9,2,2v5.2&#10;&#9;&#9;C426.1,248.8,425.2,249.7,424.1,249.7L424.1,249.7z M394.7,241.9c-0.3,0-0.6,0.3-0.6,0.6v0v5.2c0,0.3,0.3,0.6,0.6,0.6l0,0h29.4&#10;&#9;&#9;c0.3,0,0.6-0.3,0.6-0.6v0v-5.2c0-0.3-0.3-0.6-0.6-0.6l0,0H394.7z"/>
	<path class="st2_motivation-7-37" d="M396.6,248.3c-0.4,0-0.7-0.3-0.7-0.7c0,0,0,0,0,0v-5c0-0.4,0.3-0.7,0.7-0.7c0.4,0,0.7,0.3,0.7,0.7v5&#10;&#9;&#9;C397.3,248,397,248.3,396.6,248.3z"/>
	<path class="st2_motivation-7-37" d="M400.3,248.3c-0.4,0-0.7-0.3-0.7-0.7c0,0,0,0,0,0v-5c0-0.4,0.3-0.7,0.7-0.7c0.4,0,0.7,0.3,0.7,0.7c0,0,0,0,0,0&#10;&#9;&#9;v5C401,248,400.7,248.3,400.3,248.3z"/>
	<path class="st2_motivation-7-37" d="M403.9,248.3c-0.4,0-0.7-0.3-0.7-0.7c0,0,0,0,0,0v-5c0-0.4,0.3-0.7,0.7-0.7c0.4,0,0.7,0.3,0.7,0.7c0,0,0,0,0,0&#10;&#9;&#9;v5C404.6,248,404.3,248.3,403.9,248.3z"/>
	<path class="st2_motivation-7-37" d="M407.6,248.3c-0.4,0-0.7-0.3-0.7-0.7c0,0,0,0,0,0v-5c0-0.4,0.3-0.7,0.7-0.7c0.4,0,0.7,0.3,0.7,0.7c0,0,0,0,0,0&#10;&#9;&#9;v5C408.3,248,408,248.3,407.6,248.3z"/>
	<path class="st2_motivation-7-37" d="M411.2,248.3c-0.4,0-0.7-0.3-0.7-0.7c0,0,0,0,0,0v-5c0-0.4,0.3-0.7,0.7-0.7c0.4,0,0.7,0.3,0.7,0.7v5&#10;&#9;&#9;C411.9,248,411.6,248.3,411.2,248.3z"/>
	<path class="st2_motivation-7-37" d="M414.9,248.3c-0.4,0-0.7-0.3-0.7-0.7c0,0,0,0,0,0v-5c0-0.4,0.3-0.7,0.7-0.7c0.4,0,0.7,0.3,0.7,0.7c0,0,0,0,0,0&#10;&#9;&#9;v5C415.6,248,415.3,248.3,414.9,248.3z"/>
	<path class="st2_motivation-7-37" d="M418.6,248.3c-0.4,0-0.7-0.3-0.7-0.7c0,0,0,0,0,0v-5c0-0.4,0.3-0.7,0.7-0.7c0.4,0,0.7,0.3,0.7,0.7v5&#10;&#9;&#9;C419.3,248,418.9,248.3,418.6,248.3z"/>
	<path class="st2_motivation-7-37" d="M422.2,248.3c-0.4,0-0.7-0.3-0.7-0.7c0,0,0,0,0,0v-5c0-0.4,0.3-0.7,0.7-0.7c0.4,0,0.7,0.3,0.7,0.7c0,0,0,0,0,0&#10;&#9;&#9;v5C422.9,248,422.6,248.3,422.2,248.3z"/>
	<path class="st0_motivation-7-37" d="M321.4,272.4h30.1c0.5,0,0.9,0.4,0.9,0.9v5.9c0,0.5-0.4,0.9-0.9,0.9h-30.1c-0.5,0-0.9-0.4-0.9-0.9v-5.9&#10;&#9;&#9;C320.5,272.8,320.9,272.4,321.4,272.4z"/>
	<path class="st1_motivation-7-37" d="M351.1,280.9h-29.4c-1.1,0-2-0.9-2-2v-5.2c0-1.1,0.9-2,2-2h29.4c1.1,0,2,0.9,2,2v5.2&#10;&#9;&#9;C353.1,280,352.2,280.9,351.1,280.9z M321.8,273.1c-0.3,0-0.6,0.3-0.6,0.6l0,0v5.2c0,0.3,0.3,0.6,0.6,0.6l0,0h29.4&#10;&#9;&#9;c0.3,0,0.6-0.3,0.6-0.6l0,0v-5.2c0-0.3-0.3-0.6-0.6-0.6l0,0H321.8z"/>
	<path class="st2_motivation-7-37" d="M349.2,279.5c-0.4,0-0.7-0.3-0.7-0.7v0v-5c0-0.4,0.3-0.7,0.7-0.7c0.4,0,0.7,0.3,0.7,0.7v5&#10;&#9;&#9;C349.9,279.2,349.6,279.5,349.2,279.5z"/>
	<path class="st2_motivation-7-37" d="M345.6,279.5c-0.4,0-0.7-0.3-0.7-0.7v0v-5c0-0.4,0.3-0.7,0.7-0.7s0.7,0.3,0.7,0.7c0,0,0,0,0,0v5&#10;&#9;&#9;C346.3,279.2,346,279.5,345.6,279.5z"/>
	<path class="st2_motivation-7-37" d="M341.9,279.5c-0.4,0-0.7-0.3-0.7-0.7v0v-5c0-0.4,0.3-0.7,0.7-0.7c0.4,0,0.7,0.3,0.7,0.7v5&#10;&#9;&#9;C342.6,279.2,342.3,279.5,341.9,279.5z"/>
	<path class="st2_motivation-7-37" d="M338.3,279.5c-0.4,0-0.7-0.3-0.7-0.7v0v-5c0-0.4,0.3-0.7,0.7-0.7s0.7,0.3,0.7,0.7c0,0,0,0,0,0v5&#10;&#9;&#9;C339,279.2,338.7,279.5,338.3,279.5z"/>
	<path class="st2_motivation-7-37" d="M334.6,279.5c-0.4,0-0.7-0.3-0.7-0.7v0v-5c0-0.4,0.3-0.7,0.7-0.7c0.4,0,0.7,0.3,0.7,0.7v5&#10;&#9;&#9;C335.3,279.2,335,279.5,334.6,279.5z"/>
	<path class="st2_motivation-7-37" d="M331,279.5c-0.4,0-0.7-0.3-0.7-0.7v0v-5c0-0.4,0.3-0.7,0.7-0.7s0.7,0.3,0.7,0.7c0,0,0,0,0,0v5&#10;&#9;&#9;C331.7,279.2,331.4,279.5,331,279.5z"/>
	<path class="st2_motivation-7-37" d="M327.3,279.5c-0.4,0-0.7-0.3-0.7-0.7v0v-5c0-0.4,0.3-0.7,0.7-0.7c0.4,0,0.7,0.3,0.7,0.7v5&#10;&#9;&#9;C328,279.2,327.7,279.5,327.3,279.5z"/>
	<path class="st2_motivation-7-37" d="M323.7,279.5c-0.4,0-0.7-0.3-0.7-0.7v0v-5c0-0.4,0.3-0.7,0.7-0.7s0.7,0.3,0.7,0.7c0,0,0,0,0,0v5&#10;&#9;&#9;C324.4,279.2,324,279.5,323.7,279.5z"/>
	<path class="st0_motivation-7-37" d="M327.3,264.6h30.1c0.5,0,0.9,0.4,0.9,0.9v5.9c0,0.5-0.4,0.9-0.9,0.9h-30.1c-0.5,0-0.9-0.4-0.9-0.9v-5.9&#10;&#9;&#9;C326.4,265,326.8,264.6,327.3,264.6z"/>
	<path class="st1_motivation-7-37" d="M357.1,273.1h-29.4c-1.1,0-2-0.9-2-2v-5.2c0-1.1,0.9-2,2-2h29.4c1.1,0,2,0.9,2,2v5.2&#10;&#9;&#9;C359.1,272.2,358.2,273.1,357.1,273.1L357.1,273.1z M327.7,265.3c-0.3,0-0.6,0.3-0.6,0.6l0,0v5.2c0,0.3,0.3,0.6,0.6,0.6l0,0h29.4&#10;&#9;&#9;c0.3,0,0.6-0.3,0.6-0.6l0,0v-5.2c0-0.3-0.3-0.6-0.6-0.6l0,0H327.7z"/>
	<path class="st2_motivation-7-37" d="M355.2,271.7c-0.4,0-0.7-0.3-0.7-0.7v0v-5c0-0.4,0.3-0.7,0.7-0.7s0.7,0.3,0.7,0.7c0,0,0,0,0,0v5&#10;&#9;&#9;C355.9,271.4,355.6,271.7,355.2,271.7z"/>
	<path class="st2_motivation-7-37" d="M351.5,271.7c-0.4,0-0.7-0.3-0.7-0.7v0v-5c0-0.4,0.3-0.7,0.7-0.7s0.7,0.3,0.7,0.7c0,0,0,0,0,0v5&#10;&#9;&#9;C352.2,271.4,351.9,271.7,351.5,271.7z"/>
	<path class="st2_motivation-7-37" d="M347.9,271.7c-0.4,0-0.7-0.3-0.7-0.7v0v-5c0-0.4,0.3-0.7,0.7-0.7c0.4,0,0.7,0.3,0.7,0.7v5&#10;&#9;&#9;C348.6,271.4,348.3,271.7,347.9,271.7z"/>
	<path class="st2_motivation-7-37" d="M344.2,271.7c-0.4,0-0.7-0.3-0.7-0.7v0v-5c0-0.4,0.3-0.7,0.7-0.7s0.7,0.3,0.7,0.7c0,0,0,0,0,0v5&#10;&#9;&#9;C344.9,271.4,344.6,271.7,344.2,271.7z"/>
	<path class="st2_motivation-7-37" d="M340.6,271.7c-0.4,0-0.7-0.3-0.7-0.7v0v-5c0-0.4,0.3-0.7,0.7-0.7s0.7,0.3,0.7,0.7c0,0,0,0,0,0v5&#10;&#9;&#9;C341.3,271.4,340.9,271.7,340.6,271.7z"/>
	<path class="st2_motivation-7-37" d="M336.9,271.7c-0.4,0-0.7-0.3-0.7-0.7v0v-5c0-0.4,0.3-0.7,0.7-0.7s0.7,0.3,0.7,0.7c0,0,0,0,0,0v5&#10;&#9;&#9;C337.6,271.4,337.3,271.7,336.9,271.7z"/>
	<path class="st2_motivation-7-37" d="M333.2,271.7c-0.4,0-0.7-0.3-0.7-0.7v0v-5c0-0.4,0.3-0.7,0.7-0.7c0.4,0,0.7,0.3,0.7,0.7v5&#10;&#9;&#9;C333.9,271.4,333.6,271.7,333.2,271.7z"/>
	<path class="st2_motivation-7-37" d="M329.6,271.7c-0.4,0-0.7-0.3-0.7-0.7v0v-5c0-0.4,0.3-0.7,0.7-0.7s0.7,0.3,0.7,0.7c0,0,0,0,0,0v5&#10;&#9;&#9;C330.3,271.4,330,271.7,329.6,271.7z"/>
</g>
</svg>