<svg version="1.1" id="Layer_1" xmlns="http://www.w3.org/2000/svg" xmlns:xlink="http://www.w3.org/1999/xlink" x="0px" y="0px" viewBox="0 0 500 500" style="width: 144px;" xml:space="preserve" data-imageid="mobile-phone-13" imageName="Mobile Phone" class="illustrations_image">
<style type="text/css">
	.st0_mobile-phone-13{fill:#FFD0C2;}
	.st1_mobile-phone-13{fill:url(#SVGID_1_);}
	.st2_mobile-phone-13{fill:url(#SVGID_00000170958011853180043800000012593935311995258511_);}
	.st3_mobile-phone-13{fill:#EF7F6C;}
	.st4_mobile-phone-13{fill:#F4F4F4;}
	.st5_mobile-phone-13{fill:#BABABC;}
	.st6_mobile-phone-13{fill:#68E1FD;}
	.st7_mobile-phone-13{fill:#7EB753;}
	.st8_mobile-phone-13{fill:#FFAC8A;}
	.st9_mobile-phone-13{opacity:0.5;fill:#F4F4F4;enable-background:new    ;}
	.st10_mobile-phone-13{fill:#CE5438;}
	.st11_mobile-phone-13{fill:#15156D;}
	.st12_mobile-phone-13{fill:#3129A3;}
</style>
<ellipse id="Base_mobile-phone-13" class="st0_mobile-phone-13" cx="239.6" cy="359.4" rx="186.7" ry="109.7"/>
<g id="Shadow_mobile-phone-13">
	
		<linearGradient id="SVGID_1_-mobile-phone-13" gradientUnits="userSpaceOnUse" x1="180.9031" y1="-3546.9048" x2="112.6631" y2="-3506.7744" gradientTransform="matrix(1 0 0 1 0 3908.1499)">
		<stop offset="0" style="stop-color:#FFAC8A"/>
		<stop offset="0.99" style="stop-color:#FFD0C2"/>
	</linearGradient>
	<path class="st1_mobile-phone-13" d="M78.3,405.3l108.1-61.8l42.4-13.6l17.1-6.1l16.9,2.1l-154.9,94.7C107.9,420.5,100.4,416.1,78.3,405.3z"/>
	
		<linearGradient id="SVGID_00000116937176937268081000000014936572874356941728_-mobile-phone-13" gradientUnits="userSpaceOnUse" x1="321.2979" y1="-3534.6741" x2="158.6379" y2="-3450.634" gradientTransform="matrix(1 0 0 1 0 3908.1499)">
		<stop offset="0" style="stop-color:#FFAC8A"/>
		<stop offset="0.99" style="stop-color:#FFD0C2"/>
	</linearGradient>
	<path style="fill:url(#SVGID_00000116937176937268081000000014936572874356941728_);" d="M131.7,448.9l129.8-74.3l37,16.4l17.1-6.1&#10;&#9;&#9;l16.9,2.1l-133.6,79.5C198.9,466.5,153.8,459.7,131.7,448.9z"/>
</g>
<g id="Smartphone_mobile-phone-13">
	<polyline class="st3_mobile-phone-13" points="259,52.4 270,57.2 259.4,61.8 256.9,56.4 &#9;"/>
	<path class="st3_mobile-phone-13" d="M159.4,373.5l90.8-52.9c7.4-4.3,12-12.2,12-20.8l2.9-240.4c0-6.3-9.8-9.5-15.2-6.3L156,108.5&#10;&#9;&#9;c-4.7,2.8-7.6,7.9-7.6,13.4v245.2c0,4.1,3.3,7.3,7.4,7.3C157,374.5,158.3,374.1,159.4,373.5L159.4,373.5z"/>
	<polyline class="st3_mobile-phone-13" points="152.1,373.6 164,379.9 162.7,371.6 154.4,370.1 &#9;"/>
	<path class="st4_mobile-phone-13" d="M170.8,379.5l90.8-52.9c7.4-4.3,12-12.3,12-20.9V63c0-3.5-2.9-6.4-6.4-6.4c-1.2,0-2.3,0.3-3.3,0.9l-96.6,57.1&#10;&#9;&#9;c-4.7,2.8-7.6,7.9-7.6,13.4v245.2c0,4.1,3.3,7.4,7.3,7.4C168.4,380.6,169.7,380.2,170.8,379.5z"/>
	
		<ellipse transform="matrix(0.2323 -0.9727 0.9727 0.2323 -151.0993 477.4537)" class="st5_mobile-phone-13" cx="226.9" cy="334.4" rx="6.4" ry="4.8"/>
	<path class="st5_mobile-phone-13" d="M230.8,93.6L230.8,93.6c0,0.8-0.4,1.6-1.2,2l-20,11.5c-1.1,0.6-2.5,0.2-3.2-0.9c-0.2-0.3-0.3-0.7-0.3-1.1v-0.5&#10;&#9;&#9;c0-0.8,0.5-1.6,1.2-2l20-11c1.1-0.6,2.5-0.2,3.1,0.9C230.6,92.9,230.7,93.2,230.8,93.6L230.8,93.6z"/>
	<ellipse transform="matrix(0.3471 -0.9378 0.9378 0.3471 74.5705 282.1714)" class="st5_mobile-phone-13" cx="239.9" cy="87.5" rx="3.1" ry="2.3"/>
</g>
<g id="Bubble_chat_mobile-phone-13">
	<path class="st6_mobile-phone-13 targetColor" d="M350.5,72.6c2.3-1.2,3.7-3.5,3.7-6V31.5c0-3.8-3.1-6.8-6.9-6.8c-1.2,0-2.4,0.3-3.4,0.9l-54.9,32&#10;&#9;&#9;c-2.2,1.3-3.4,3.6-3.4,6.1l1.9,44.3L350.5,72.6z" style="fill: rgb(255, 88, 118);"/>
	<path class="st4_mobile-phone-13" d="M296.8,70.6L344.9,43c1-0.6,1.3-1.8,0.7-2.8c-0.6-1-1.8-1.3-2.8-0.7l0,0l-48.1,27.6c-1,0.6-1.3,1.8-0.7,2.8&#10;&#9;&#9;C294.6,70.8,295.9,71.2,296.8,70.6L296.8,70.6z"/>
	<path class="st4_mobile-phone-13" d="M299.2,84.6L347.3,57c1-0.6,1.3-1.8,0.7-2.8c-0.6-1-1.8-1.3-2.8-0.7l0,0L297.1,81c-1,0.6-1.3,1.8-0.7,2.8&#10;&#9;&#9;C297,84.8,298.2,85.1,299.2,84.6L299.2,84.6L299.2,84.6L299.2,84.6z"/>
</g>
<g id="Screen_mobile-phone-13">
	<polygon class="st6_mobile-phone-13 targetColor" points="165.5,142.7 269,83.4 269,295.7 165.5,355.5 &#9;" style="fill: rgb(255, 88, 118);"/>
	<path class="st3_mobile-phone-13" d="M239.8,135v13.4c0,1.5,1.2,2.8,2.8,2.8c0.5,0,0.9-0.1,1.3-0.3l12.4-6.8c0.9-0.5,1.4-1.4,1.4-2.4v-13.8&#10;&#9;&#9;c0-1.5-1.3-2.8-2.8-2.8c0,0,0,0,0,0c-0.5,0-0.9,0.1-1.4,0.4l-12.5,7.2C240.3,133.1,239.8,134,239.8,135z"/>
	<path class="st7_mobile-phone-13" d="M177.4,170.7v13.4c0,1.5,1.3,2.8,2.8,2.8c0.5,0,0.9-0.1,1.3-0.3l12.4-6.8c0.9-0.5,1.4-1.4,1.4-2.4v-13.7&#10;&#9;&#9;c0-1.5-1.3-2.8-2.8-2.8c-0.5,0-1,0.1-1.4,0.4l-12.4,7.1C178,168.8,177.4,169.7,177.4,170.7z"/>
	<path class="st4_mobile-phone-13" d="M209.3,153.4v13.4c0,1.5,1.2,2.8,2.8,2.8c0.5,0,0.9-0.1,1.3-0.3l12.4-6.8c0.9-0.5,1.4-1.4,1.4-2.4v-13.7&#10;&#9;&#9;c0-1.5-1.2-2.8-2.8-2.8c0,0,0,0,0,0c-0.5,0-1,0.1-1.4,0.4l-12.4,7.1C209.8,151.5,209.3,152.4,209.3,153.4z"/>
	
		<ellipse transform="matrix(0.3011 -0.9536 0.9536 0.3011 -163.141 397.2916)" class="st4_mobile-phone-13" cx="189.5" cy="309.9" rx="13.4" ry="10"/>
	<ellipse transform="matrix(0.2125 -0.9772 0.9772 0.2125 -149.111 428.8938)" class="st5_mobile-phone-13" cx="191.5" cy="307" rx="5.2" ry="3.6"/>
	<path class="st5_mobile-phone-13" d="M184.5,321.8c0,0,2.2-9.5,7.6-10.6s6.8,5.8,6.8,5.8c-1.5,2.9-4.1,5.2-7.2,6.1&#10;&#9;&#9;C186.2,324.9,184.5,321.8,184.5,321.8z"/>
	<ellipse transform="matrix(0.3029 -0.953 0.953 0.3029 -122.5162 415.826)" class="st3_mobile-phone-13" cx="223" cy="291.7" rx="14.6" ry="10.8"/>
	<path class="st4_mobile-phone-13" d="M218.4,285c0.3-0.1,3.4,1.8,3.3,2.5s-1.6,2.8-1.4,3.2s3.3,4.3,5,4.5c1.2-0.7,2.3-1.6,3.3-2.5&#10;&#9;&#9;c1.1,0.4,2,1.4,2.2,2.6c0,0.7-2.8,3.1-4.6,3.7c-2.3,0.8-9.3-7-10.1-9S218.4,285,218.4,285z"/>
	<path class="st7_mobile-phone-13" d="M243.3,185.3v13.4c0,1.5,1.3,2.8,2.8,2.8c0.5,0,0.9-0.1,1.3-0.3l12.4-6.8c0.9-0.5,1.4-1.4,1.4-2.4v-13.7&#10;&#9;&#9;c0-1.5-1.2-2.8-2.8-2.8c0,0,0,0,0,0c-0.5,0-1,0.1-1.4,0.4l-12.4,7.1C243.9,183.4,243.3,184.3,243.3,185.3z"/>
	<path class="st3_mobile-phone-13" d="M182,220.4v13.4c0,1.5,1.3,2.8,2.8,2.8c0.5,0,0.9-0.1,1.3-0.3l12.4-6.8c0.9-0.5,1.4-1.4,1.4-2.4v-13.7&#10;&#9;&#9;c0-1.5-1.3-2.8-2.8-2.8c-0.5,0-1,0.1-1.4,0.4l-12.4,7.1C182.5,218.5,182,219.5,182,220.4z"/>
	<path class="st7_mobile-phone-13" d="M214.4,202.4v13.4c0,1.5,1.3,2.8,2.8,2.8c0.5,0,0.9-0.1,1.3-0.3l12.4-6.8c0.9-0.5,1.4-1.4,1.4-2.4v-13.7&#10;&#9;&#9;c0-1.5-1.3-2.8-2.8-2.8c0,0,0,0,0,0c-0.5,0-1,0.1-1.4,0.4l-12.4,7.2C214.9,200.5,214.4,201.4,214.4,202.4z"/>
	<path class="st8_mobile-phone-13" d="M244.4,272.7v13.4c0,1.5,1.2,2.8,2.8,2.8c0.5,0,0.9-0.1,1.3-0.3l12.3-6.9c0.9-0.5,1.4-1.4,1.4-2.4v-13.7&#10;&#9;&#9;c0-1.5-1.3-2.8-2.8-2.8c-0.5,0-0.9,0.1-1.3,0.4l-12.3,7.1C244.9,270.8,244.4,271.7,244.4,272.7z"/>
	
		<ellipse transform="matrix(0.3951 -0.9187 0.9187 0.3951 -100.4094 400.8946)" class="st4_mobile-phone-13" cx="254.2" cy="276.7" rx="5.3" ry="3.9"/>
	<polyline class="st6_mobile-phone-13 targetColor" points="287.5,108 287.5,117.7 300.6,96.7 &#9;" style="fill: rgb(255, 88, 118);"/>
	<path class="st9_mobile-phone-13" d="M223.9,195.4c-8.2-0.7-13.8-11.8-12.7-25.3s8.5-23.5,16.9-22.8s13.8,11.8,12.7,25.3S232.1,196.1,223.9,195.4z&#10;&#9;&#9; M227.6,151.8c-5.6-0.5-11,8.1-11.9,18.7s3,20,8.6,20.4s11-8.1,11.9-18.7S233.1,152.3,227.6,151.8L227.6,151.8z"/>
</g>
<g id="Character_mobile-phone-13">
	<path class="st10_mobile-phone-13" d="M325.8,179.1c0,0,15.6,18,16.1,31S324.1,246,324.1,246l-11.9-18.8c0,0,15.5-16,0-28.4c0,0-5.3-20.8,13.6-19.7&#10;&#9;&#9;"/>
	<path class="st3_mobile-phone-13" d="M319.9,355.8c0,0,5.9,8.2,5.4,12.9s-8,12.8-9.7,16.1s-2.1,4.9,0,7.4s20.4-13.5,20.9-16s-2.6-12.3-2.6-12.3&#10;&#9;&#9;l8.1,10.2l5.9-3.5l-12.5-21.1"/>
	<path class="st11_mobile-phone-13" d="M317.5,392.5c0.5-0.5,15-5.5,15-5.5s6.8-7.1,6.5-9.8s-2.7-13.4-5.2-13.3s-2.8,14.3-2.8,14.3L317.5,392.5z"/>
	<path class="st3_mobile-phone-13" d="M300.3,369.3l-1.9,21.7c0,0-4.7,3.4-5.8,3.1s-4.6-1.2-4.6-1.7s1.6-15.3,1.2-15.7s-7.6,11.3-9.8,11.5&#10;&#9;&#9;s-19.4-9.8-17.8-13.5s10-1.8,14-1.8s9.8-2.4,12.8-9.4"/>
	<path class="st12_mobile-phone-13" d="M289.5,310.6L279,366.1c0,0,6,7.9,27.7,6.9l16.1-39.3"/>
	<path class="st12_mobile-phone-13" d="M284.8,223.4c0,0-16.2,23.6-11.2,61.8c4.4,33.8,38.2,73.8,38.2,73.8s10.2,4.4,31.2-15.5l-23.2-36.9&#10;&#9;&#9;c0,0,22.6-52.4-4.1-85.7"/>
	<path class="st8_mobile-phone-13" d="M239.3,178.2c0-3-4.6-3-4.7,0v4.8c-0.2-0.4-0.4-0.7-0.5-1c-1.8-4.4-3.2-9-4.1-13.6c-0.6-3-4.9-1.6-4.5,1.2&#10;&#9;&#9;c0.3,2.3,0.8,4.6,1.4,6.8l-0.4-0.2c-1.6-0.5-3.4,0.4-3.9,2c0,0,0,0,0,0l-0.1,0.2c-0.2,0.7-0.3,1.5-0.1,2.2h-0.4&#10;&#9;&#9;c-1.8,0.6-2.7,2.5-2.1,4.3c0.1,0.3,0.3,0.7,0.5,0.9c-0.6,0.5-1,1.1-1.1,1.9c-0.2,1.7,0.6,3.4,2,4.3c1.6,1.3,3.4,3.1,4.9,4.6&#10;&#9;&#9;c1.9,1.9,4.1,3.8,6,5.3s4.8-3.5,4.9-5.2c1.1,0.4,2.4-0.3,2.7-1.4c0,0,0,0,0,0c0.1-0.3,0.1-0.5,0.1-0.8&#10;&#9;&#9;C239.3,189.1,239.1,183.7,239.3,178.2z"/>
	<path class="st10_mobile-phone-13" d="M229.9,183.2c-1.1-2.3-2.1-4.7-3.1-7.1c-0.2-0.5-1-0.3-0.8,0.2c1,2.5,2,4.9,3.2,7.3&#10;&#9;&#9;C229.3,184.2,230.1,183.7,229.9,183.2z"/>
	<path class="st3_mobile-phone-13" d="M287.3,171.4c0,0-7.9,7.1-10.9,12s-15.3,18.4-20.3,14.4s-14-11.8-14-11.8s-12.7,8.8-11.5,17.9&#10;&#9;&#9;c0,0,11.3,23.1,28.9,18s22-11.8,22-11.8l2.6,15c0,0,21.9,6.9,32-3.3c0,0,6.6-43.2,1.8-49.6"/>
	<path class="st8_mobile-phone-13" d="M284.8,145.2c-0.2,0.5-0.5,16.2,4.8,17.6s14.4-2.2,16.7-7.2s-1-20.8-9.4-21.7S286.4,140.7,284.8,145.2z"/>
	<path class="st12_mobile-phone-13" d="M326.1,170c-1.5-3.4-4-5.3-3.4-9.4c0.5-3.1,1.2-6.2,0.1-9.3s-3.8-4.7-6.4-6.6c-0.8-0.5-1.5-1.2-2.1-1.8&#10;&#9;&#9;l-0.6-0.9c-1.5-2.6-2.6-5.8-4.7-8c-2.1-2.1-4.7-3.4-7.6-3.9c-6.1-1.1-12.3,0.3-17.3,3.9c0,0-4.6,4.4-3.1,9.1s7.1,3,10.3,5.1&#10;&#9;&#9;c3.5,2.4,1.3,6.9-0.2,9.8c-1.1,2.2-1.7,4.7-1.6,7.1c0.1,2.3-0.8,4.6-2.3,6.3c-1.6,2.3-3.5,4.7-3.7,7.6c-0.3,5.8,5.9,18,23.5,13.5&#10;&#9;&#9;c1.1-0.3,2.3-0.6,3.5-1c3.8-1,7.3-2.8,10.4-5.1C325.8,182.6,328.7,175.9,326.1,170z"/>
	<path class="st11_mobile-phone-13" d="M287.3,322c0,0,18.5,32,24.6,36.9l-5.2,14.1C306.7,373,285.2,342.9,287.3,322z"/>
	<path class="st11_mobile-phone-13" d="M319.4,304.9c-5.9-12.5-9.2-26-9.6-39.8c0-1.1-1.8-1.1-1.6,0c0.5,14.1,3.8,27.9,9.8,40.7&#10;&#9;&#9;C318.4,306.7,319.8,305.9,319.4,304.9z"/>
</g>
</svg>